<?xml version="1.0" standalone="no"?>
<!DOCTYPE svg PUBLIC "-//W3C//DTD SVG 1.1//EN" "http://www.w3.org/Graphics/SVG/1.1/DTD/svg11.dtd" >
<svg xmlns="http://www.w3.org/2000/svg">
<metadata>
This is a custom SVG webfont generated by Fontspring.
Foundry     : Morice Kastoun
</metadata>
<defs>
<font id="webfont" horiz-adv-x="519" >
<font-face units-per-em="1000" ascent="760" descent="-240" />
<missing-glyph horiz-adv-x="240" />
<glyph unicode=" "  horiz-adv-x="240" />
<glyph unicode="&#x09;" horiz-adv-x="240" />
<glyph unicode="&#xa0;" horiz-adv-x="240" />
<glyph unicode="!" horiz-adv-x="303" d="M182 227h-62l-9 243v263h80v-263zM151 -6q-53 0 -53 57q0 55 53 55t53 -55q0 -57 -53 -57z" />
<glyph unicode="&#x22;" horiz-adv-x="391" d="M149 517h-78l-10 262h98zM321 517h-78l-11 262h98z" />
<glyph unicode="#" horiz-adv-x="573" d="M520 439h-92l-36 -204h91l-16 -86h-91l-26 -149h-60l26 149h-123l-26 -149h-60l26 149h-96l16 86h96l36 204h-95l16 85h94l25 137h60l-24 -137h122l24 137h61l-25 -137h93zM246 439l-37 -204h122l37 204h-122z" />
<glyph unicode="$" horiz-adv-x="573" d="M261 395l25 135q7 36 11 62l10 55q-21 3 -43 3q-105 -1 -113 -117v-17q3 -54 18 -77q17 -26 66 -40q10 -2 26 -4zM433 225q0 50 -39 74q-28 17 -89 24l-45 -234q15 -3 27 -3h18q50 0 87 31q41 35 41 94v14zM507 204q0 -104 -83 -153q-30 -18 -67 -26q-27 -5 -58 -5h-20 l-31 4l-12 -60h-53q1 0 4 18l4 22q2 15 5 28q-56 9 -98 10v70q6 1 14 1q16 0 37 -3q22 -3 59 -11l41 229l-15 2q-2 0 -4 1q-12 1 -19 3q-133 28 -133 168v34q3 79 55 131t128 52h3q21 0 55 -4l9 52l62 2l-12 -63q6 -2 9 -2q56 -15 85 -15h4l1 -73h-7q-21 0 -45 5l-60 15 l-47 -247l39 -7q22 -4 43 -11q107 -33 107 -145v-22z" />
<glyph unicode="%" horiz-adv-x="864" d="M586 679l-262 -679h-55l263 679h54zM348 506v-30q0 -73 -36 -126q-39 -58 -106 -58h-11q-68 0 -107 59q-35 53 -35 125v30q0 74 35 126q40 58 107 58h11q67 0 106 -57q36 -52 36 -127zM200 346q42 0 65 39q20 34 20 88v36q0 55 -19 89q-21 38 -66 38q-43 0 -64 -39 q-18 -31 -20 -88v-36q0 -58 21 -93q23 -34 63 -34zM800 205v-31q0 -74 -36 -125q-39 -59 -106 -59h-11q-67 0 -107 59q-35 53 -35 125v31q0 74 36 126q39 58 106 58h11q67 0 106 -58q36 -52 36 -126zM652 44q44 0 65 39q20 34 20 88v37q0 55 -19 89q-21 37 -66 37 q-43 0 -64 -39q-18 -32 -20 -87v-37q0 -60 22 -92q21 -35 62 -35z" />
<glyph unicode="&#x26;" horiz-adv-x="670" d="M259 -10q-91 0 -151 66q-54 61 -54 135q0 33 10 68q33 112 142 163q-78 83 -78 171q0 68 53 114q51 45 121 45q69 0 119 -44q51 -45 51 -112q0 -62 -34 -106q-27 -36 -89 -74l-23 -14l144 -160l9 22l22 66q19 49 52 78q33 28 81 28q18 0 38 -4v-71q-18 3 -32 3 q-24 0 -37 -9q-17 -14 -30 -44q-5 -11 -11 -28l-39 -98l167 -185h-104l-105 115q-93 -125 -221 -125h-1zM255 368q-80 -30 -111 -109q-12 -31 -12 -59q0 -49 36 -90q36 -40 94 -42q104 0 171 102zM299 684q-37 0 -64 -26q-28 -27 -28 -66t20 -74q8 -14 21 -31l26 -30 q31 16 45 25q23 14 38 28q36 35 36 86q0 36 -27 63q-27 25 -61 25h-6z" />
<glyph unicode="'" horiz-adv-x="221" d="M150 514h-79l-10 262h99z" />
<glyph unicode="(" horiz-adv-x="345" d="M220 -139q-72 96 -110 214q-37 114 -37 231q0 116 36 230q39 120 111 217h84q-71 -101 -108 -220q-34 -111 -34 -227q0 -115 34 -225q37 -118 108 -220h-84z" />
<glyph unicode=")" horiz-adv-x="345" d="M236 78q-39 -120 -111 -217h-84q71 101 108 220q34 111 34 227q0 115 -34 226q-37 117 -108 219h84q72 -96 110 -215q37 -113 37 -230q0 -116 -36 -230z" />
<glyph unicode="*" horiz-adv-x="427" d="M409 585l-143 -41l94 -114l-64 -47l-82 122l-82 -122l-65 47l94 114l-143 41l24 73l138 -51l-6 146h79l-5 -146l137 51z" />
<glyph unicode="+" d="M299 226v-208h-80v208h-174v79h174v208h80v-208h174v-79h-174z" />
<glyph unicode="," horiz-adv-x="272" d="M80 -181l-50 54q59 40 76 65q14 20 14 55v15h-12q-37 0 -37 44q0 56 61 56q72 0 72 -89q0 -118 -124 -200z" />
<glyph unicode="-" horiz-adv-x="250" d="M23 228v75h204v-75h-204z" />
<glyph unicode="." horiz-adv-x="272" d="M136 -7q-61 0 -61 58t61 58t61 -58t-61 -58z" />
<glyph unicode="/" horiz-adv-x="332" d="M62 -139h-80l311 872h80z" />
<glyph unicode="0" horiz-adv-x="641" d="M90 344q0 130 66 208q63 75 163 75q103 0 166 -75q66 -77 66 -208v-60q0 -128 -65 -207q-65 -78 -166 -78q-99 0 -164 78q-66 80 -66 207v60zM437 127q37 55 37 152v70q0 91 -35 147q-41 63 -119 63q-74 0 -115 -64q-37 -57 -37 -146v-70q0 -95 39 -152q40 -59 113 -59 q77 0 117 59z" />
<glyph unicode="1" horiz-adv-x="359" d="M268 606v-606h-75v539l-105 -104l-39 55l158 146z" />
<glyph unicode="2" horiz-adv-x="598" d="M78 514q40 40 85 72q55 39 94 47q34 7 63 7q93 0 142 -70q39 -55 39 -111q0 -72 -65 -144q-22 -24 -56 -58l-127 -125q-34 -34 -56 -58h294l8 -74h-395l-25 69l67 69l121 119l40 39q44 43 70 71q41 43 42 93v3q0 42 -30 76q-26 29 -70 29h-9q-50 -2 -92 -35 q-50 -39 -87 -79z" />
<glyph unicode="3" horiz-adv-x="617" d="M504 196q22 -40 22 -85v-16q0 -87 -63 -146q-60 -57 -144 -57h-10q-58 0 -124 38q-28 15 -56 37q-24 18 -46 39l52 59q18 -17 36 -32q23 -19 45 -33q56 -36 96 -36q58 0 96 37q39 37 39 94v16q0 54 -39 91q-40 38 -99 38h-101v70h99q55 0 92 36q36 34 36 84v19 q-3 120 -124 120q-45 0 -93 -28q-19 -12 -41 -28l-36 -30l-49 61q46 42 97 67q62 30 122 30q85 0 144 -54q59 -55 59 -138v-19q0 -95 -90 -156q12 -4 29 -18q32 -26 51 -60z" />
<glyph unicode="4" horiz-adv-x="605" d="M552 69h-90v-174h-77v174h-294l-28 74q10 21 36 69q12 21 27 50l158 294q12 20 35 47l41 45h94l-54 -60q-31 -38 -48 -69l-103 -188l-51 -97l-47 -92h234v220h77v-220h90v-73z" />
<glyph unicode="5" horiz-adv-x="625" d="M309 -101q-55 0 -115 32q-49 27 -92 71l57 56q30 -32 68 -57q47 -30 82 -30h12q65 0 103 48q37 46 37 117q0 173 -129 173q-48 0 -83 -19q-27 -15 -58 -50l-75 27v376h383l-6 -71h-299v-256q24 27 53 43q44 24 100 24q100 0 150 -69q45 -63 45 -176q0 -108 -63 -175 q-61 -64 -156 -64h-14z" />
<glyph unicode="6" horiz-adv-x="625" d="M86 452q0 120 64 204q71 93 186 93q28 0 60 -5q25 -3 52 -10q19 -5 37 -11l16 -5l-30 -73h-2q-34 16 -57 23q-35 11 -73 11q-89 0 -137 -77q-38 -64 -38 -153v-36q54 70 153 70q89 0 153 -58q71 -65 71 -173v-27q0 -100 -62 -166q-66 -69 -173 -69q-96 0 -159 71 q-61 70 -61 172v219zM164 236q0 -77 40 -127q41 -50 106 -50q153 0 153 160v35q0 67 -43 112q-41 44 -101 44q-98 0 -155 -81v-93z" />
<glyph unicode="7" horiz-adv-x="549" d="M35 512l78 106q19 25 51 25l342 -1l11 -58l-311 -682h-86l308 669h-244q-18 0 -33 -20l-56 -81z" />
<glyph unicode="8" horiz-adv-x="637" d="M483 58q-66 -58 -162 -58q-101 0 -166 58q-68 59 -68 153q0 118 100 174q-41 29 -61 69q-22 43 -22 104q0 83 59 137q61 54 158 55h3q90 0 150 -54q61 -55 61 -138q0 -115 -83 -173q46 -29 71 -69q29 -46 29 -105q0 -93 -69 -153zM341 420q48 0 81 34q35 37 35 97 q0 55 -32 91q-36 40 -104 40q-69 0 -106 -40q-33 -35 -33 -91q0 -59 36 -96q33 -35 78 -35h45zM287 347q-47 0 -84 -40q-38 -40 -38 -94q0 -65 42 -105q42 -41 113 -41q153 0 153 146q0 53 -37 94q-37 40 -84 40h-65z" />
<glyph unicode="9" horiz-adv-x="625" d="M539 202q0 -120 -64 -204q-71 -93 -186 -93q-28 0 -60 5q-25 3 -52 10q-19 5 -37 11l-16 5l30 73h2q34 -16 57 -23q35 -11 73 -11q89 0 137 78q38 63 38 152v36q-54 -70 -153 -70q-89 0 -152 58q-72 65 -72 173v27q0 100 62 166q66 69 173 69q96 0 159 -71 q61 -70 61 -172v-219zM461 418q0 77 -40 127q-41 50 -106 50q-153 0 -153 -160v-35q0 -67 43 -112q41 -44 101 -44q98 0 155 81v93z" />
<glyph unicode=":" horiz-adv-x="272" d="M136 408q-61 0 -61 58t61 58t61 -58t-61 -58zM136 -7q-61 0 -61 58t61 58t61 -58t-61 -58z" />
<glyph unicode=";" horiz-adv-x="272" d="M80 -181l-50 54q59 40 76 65q14 20 14 55v15h-12q-37 0 -37 44q0 56 61 56q72 0 72 -89q0 -118 -124 -200zM136 408q-61 0 -61 58t61 58t61 -58t-61 -58z" />
<glyph unicode="&#x3c;" d="M334 0l-247 266l247 265h97v-10l-237 -253l237 -258v-10h-97z" />
<glyph unicode="=" d="M62 109v78h395v-78h-395zM62 351v78h395v-78h-395z" />
<glyph unicode="&#x3e;" d="M184 531l247 -265l-247 -266h-97v10l237 254l-237 257v10h97z" />
<glyph unicode="?" horiz-adv-x="458" d="M379 506q-11 -15 -29 -31l-69 -57q-18 -18 -30 -35q-30 -43 -31 -102l-2 -54h-70v77q0 55 26 101q11 19 27 38q13 15 32 34l31 29q17 17 27 29q27 32 27 63q0 70 -71 70q-8 0 -16 -1q-87 -7 -149 -87l-29 92q83 80 180 80q24 0 48 -5q127 -24 127 -151q0 -51 -29 -90z M190 -5q-58 0 -58 55q0 56 59 56t59 -56q0 -55 -60 -55z" />
<glyph unicode="@" horiz-adv-x="944" d="M859 257q-19 -56 -55 -97q-68 -79 -158 -79q-79 0 -100 54h-4q-86 -54 -138 -54q-124 0 -124 143q0 126 59 208q57 78 141 78q60 0 117 -31l5 24h76l-54 -308q-3 -16 -3 -22q0 -31 39 -31q57 0 101 63q50 72 50 186q0 288 -305 288q-170 0 -270 -116q-102 -117 -102 -318 q0 -328 292 -328q84 0 165 31l8 -66q-90 -29 -177 -29q-359 0 -359 392q0 234 125 368q120 130 319 130q174 0 271 -87q103 -91 103 -264q0 -73 -22 -135zM587 427q-48 24 -90 24q-55 0 -94 -63q-40 -64 -40 -160q0 -83 70 -83q41 0 111 41z" />
<glyph unicode="A" horiz-adv-x="609" d="M348 749l71 -212l181 -537h-83l-22 61l-19 56q-12 37 -19 56l-22 61h-261l-80 -234h-82l255 749h81zM415 308l-104 319l-4 32l-4 -32l-105 -319h217z" />
<glyph unicode="B" horiz-adv-x="646" d="M108 0v749h255q84 -1 144 -55q62 -57 62 -144q0 -116 -93 -171q50 -17 83 -66q33 -48 35 -105q0 -89 -54 -148q-55 -60 -141 -60h-291zM387 71q62 0 95 39q29 35 31 98q-1 55 -36 92q-36 37 -94 37h-197v-266h201zM368 408q52 0 86 40t34 99q0 127 -122 130h-180v-269 h182z" />
<glyph unicode="C" horiz-adv-x="590" d="M330 -5h-3q-113 0 -186 86q-72 85 -72 212v157q0 141 81 225q74 77 183 77q129 0 214 -79l-50 -57q-70 65 -164 65q-77 0 -129 -58q-57 -64 -57 -173v-157q0 -109 59 -171q51 -54 127 -56h8q104 0 173 75l41 -66q-43 -35 -93 -55q-61 -24 -132 -25z" />
<glyph unicode="D" horiz-adv-x="668" d="M591 446v-147q0 -138 -75 -223q-67 -73 -181 -76h-251v750h251q114 -3 181 -79q75 -86 75 -225zM510 446q-5 109 -42 164q-43 65 -135 66h-172v-603h172q92 1 135 64q37 54 42 162v147z" />
<glyph unicode="E" horiz-adv-x="594" d="M100 749h425v-75h-348v-262h317v-75h-317v-261h344l10 -76h-431v749z" />
<glyph unicode="F" horiz-adv-x="546" d="M108 0v750h411v-76h-333v-255h307v-75h-307v-344h-78z" />
<glyph unicode="G" horiz-adv-x="673" d="M154 73q-76 84 -76 215v169q0 130 76 214q75 84 191 84q139 0 234 -87l-46 -63q-73 79 -188 79q-82 0 -134 -61q-53 -63 -53 -166v-169q0 -110 58 -173q53 -57 134 -57q66 0 116 40q56 46 56 122v97h-184l-10 72h272v-171q0 -99 -72 -164q-71 -66 -178 -66 q-120 0 -196 85z" />
<glyph unicode="H" horiz-adv-x="699" d="M97 0v749h78v-344h357v344h78v-749h-78v332h-357v-332h-78z" />
<glyph unicode="I" horiz-adv-x="294" d="M108 749h78v-749h-78v749z" />
<glyph unicode="J" horiz-adv-x="303" d="M191 30q0 -179 -133 -179q-22 0 -47 5v69q19 -4 34 -4q70 0 70 90l-1 738h77v-719z" />
<glyph unicode="K" horiz-adv-x="658" d="M630 5q-20 -11 -42 -11q-52 0 -91 58l-65 101l-121 197l-33 -41q-4 -4 -9 -11q-1 -2 -4 -5q-4 -4 -5 -6l-18 -22l-58 -74v-191h-76v749h76v-445l275 342l84 103h87l-179 -228l-88 -111l91 -154l48 -77l52 -82q18 -28 45 -28q13 0 29 7z" />
<glyph unicode="L" horiz-adv-x="549" d="M108 0v749h79v-676h346l-13 -73h-412z" />
<glyph unicode="M" horiz-adv-x="837" d="M748 749v-749h-79v657l-212 -636h-80l-211 636v-657h-78v749h128l201 -620l204 620h127z" />
<glyph unicode="N" horiz-adv-x="711" d="M605 749v-749h-79l-344 605v-605h-78v749h81l342 -600v600h78z" />
<glyph unicode="O" horiz-adv-x="703" d="M69 447q1 144 80 229q75 81 196 81t199 -81q81 -86 81 -229v-147q0 -141 -80 -227q-78 -83 -198 -83q-121 0 -198 82q-79 85 -79 226zM150 305q0 -110 50 -174q52 -69 149 -69q96 0 147 69q47 64 47 171v143q0 106 -47 171q-53 70 -150 70q-95 0 -147 -70 q-49 -66 -49 -175v-136z" />
<glyph unicode="P" horiz-adv-x="629" d="M108 0v749h253q90 0 150 -67q58 -63 58 -151v-6q0 -93 -60 -160q-62 -70 -157 -70h-166v-295h-78zM350 368q62 1 101 49q38 46 38 111q-2 60 -36 103q-36 45 -94 45h-173v-308h164z" />
<glyph unicode="Q" horiz-adv-x="691" d="M484 29q-36 -18 -75 -25q5 -5 15 -17l32 -42q10 -12 18 -17q22 -15 43 -15q19 0 37 11l-1 -71q-22 -8 -44 -8q-26 0 -52 12q-32 16 -60 48q-10 11 -19 25l-15 23q-16 26 -30 35q-11 7 -30 11l-30 4q-103 23 -155 102q-49 74 -49 193v167q0 133 64 213q67 84 189 87 q12 2 23 2q12 0 23 -2q122 -3 190 -87q63 -80 63 -213v-167q0 -142 -72 -223q-25 -27 -65 -46zM366 72q176 7 176 224v171q0 106 -41 162q-44 61 -135 62h-42q-91 -1 -135 -62q-41 -56 -41 -162v-171q0 -217 176 -224h42z" />
<glyph unicode="R" horiz-adv-x="650" d="M594 1l-4 -1q-4 -2 -7 -2l-11 -3q-7 -1 -15 -1q-58 0 -99 55q-16 22 -36 62q-3 8 -8 17l-4 9q-2 3 -4 9q-11 23 -17 34q-14 29 -23 45q-14 25 -27 41q-32 41 -68 42h-97v-308h-78v750h260q92 0 152 -66q58 -63 58 -152q0 -80 -48 -140q-49 -62 -129 -75q11 -10 26 -32 q14 -22 29 -50l49 -97q13 -25 26 -45q18 -28 44 -28q12 0 26 6zM174 382h175q61 0 101 46q38 44 38 105q0 57 -36 99q-38 44 -96 44h-182v-294z" />
<glyph unicode="S" horiz-adv-x="614" d="M125 117q103 -58 214 -58h14q62 2 100 28q44 30 50 87q1 9 1 18q0 84 -98 120q-31 12 -74 25l-38 11q-25 7 -43 13q-153 48 -153 180q0 26 6 57q17 80 88 120q61 35 153 37h9q112 0 193 -50l-6 -80q-38 28 -92 45q-53 16 -101 16h-15q-57 -3 -97 -29q-43 -27 -55 -74 q-5 -20 -5 -38q0 -83 99 -113l46 -14l50 -17q59 -21 94 -37q69 -32 98 -86q20 -38 20 -84q0 -26 -6 -54q-17 -74 -86 -115q-63 -37 -154 -37q-52 0 -120 15q-55 12 -102 30z" />
<glyph unicode="T" horiz-adv-x="559" d="M239 0v680h-211v69h501v-69h-212v-680h-78z" />
<glyph unicode="U" horiz-adv-x="730" d="M103 749h78v-476q0 -91 51 -148q51 -58 138 -58q83 0 134 58q49 57 49 148v476h78v-479q0 -122 -77 -200q-75 -74 -183 -74q-115 0 -190 74q-78 77 -78 202v477z" />
<glyph unicode="V" horiz-adv-x="640" d="M610 749l-233 -749h-113l-234 749h84l206 -666l207 666h83z" />
<glyph unicode="W" horiz-adv-x="891" d="M880 749l-174 -749h-112l-145 585l-134 -585h-112l-189 749h82l165 -658l146 635h81l158 -635l152 658h82z" />
<glyph unicode="X" horiz-adv-x="641" d="M633 6q-15 -10 -36 -10q-9 0 -19 2q-28 5 -53 28q-19 18 -43 53l-151 233l-197 -312h-95l246 382l-243 367h95l193 -296l188 296h95l-237 -366l111 -172q50 -77 68 -102q14 -20 31 -30q13 -8 26 -8q10 0 19 4z" />
<glyph unicode="Y" horiz-adv-x="547" d="M547 749l-82 -160l-75 -154q-5 -11 -13 -26l-14 -27q-17 -32 -26 -53q-24 -54 -24 -109v-220h-78v221q0 54 -20 100l-179 366l-32 62h86l136 -276q33 -69 48 -119q9 30 23 62l99 202q18 38 32 65l33 66h86z" />
<glyph unicode="Z" horiz-adv-x="594" d="M553 674l-78 -113l-335 -486h408v-75h-473l-23 92l146 213l215 309l41 59h-367l-18 76h463z" />
<glyph unicode="[" horiz-adv-x="345" d="M107 -139v872h207l-8 -74h-106v-724h106l8 -74h-207z" />
<glyph unicode="\" horiz-adv-x="355" d="M293 -139l-311 872h80l311 -872h-80z" />
<glyph unicode="]" horiz-adv-x="345" d="M238 733v-872h-207l8 74h106v724h-106l-8 74h207z" />
<glyph unicode="^" d="M355 487l-97 233l-96 -233h-78v9l113 257h125l113 -257v-9h-80z" />
<glyph unicode="_" horiz-adv-x="500" d="M32 -141v65h436v-65h-436z" />
<glyph unicode="`" horiz-adv-x="500" d="M272 602l-124 151h108l95 -142v-9h-79z" />
<glyph unicode="a" horiz-adv-x="578" d="M419 0v55q-36 -27 -69 -40q-44 -18 -94 -18q-83 0 -135 45q-53 47 -53 125q0 168 195 168q51 0 96 -19q38 -16 60 -38v49q0 143 -128 143q-48 0 -94 -18q-38 -15 -73 -41l-25 71q27 20 74 35q60 20 121 20q94 0 148 -58q52 -56 53 -152v-327h-76zM276 64h5q36 0 67 15 q26 13 56 40l10 11q6 9 6 19v45q0 14 -16 28q-23 18 -53 30q-38 15 -75 15q-133 0 -133 -99q0 -102 133 -104z" />
<glyph unicode="b" horiz-adv-x="635" d="M548 205q0 -89 -62 -147q-59 -56 -144 -58h-9q-116 0 -158 71l1 -71h-76v725l76 24v-293q50 80 168 80q83 0 143 -62q61 -63 61 -156v-113zM431 110q41 41 41 105v108q0 56 -40 98q-41 43 -101 43q-69 0 -114 -45q-41 -41 -41 -95v-113q0 -62 39 -102q40 -41 105 -41 q69 0 111 42z" />
<glyph unicode="c" horiz-adv-x="506" d="M458 49q0 -1 -12 -8q-16 -10 -35 -18q-27 -11 -56 -18q-37 -8 -77 -8q-96 0 -155 60q-60 61 -60 163v94q0 97 61 160q60 63 154 63q49 0 96 -13q41 -11 74 -30l-21 -70l-24 13q-16 9 -32 15q-45 17 -91 17q-64 0 -103 -47q-36 -43 -36 -108v-94q0 -70 41 -113 q40 -41 98 -41q56 0 103 21q17 8 33 18l21 15z" />
<glyph unicode="d" horiz-adv-x="617" d="M63 316q0 93 62 157q59 62 142 62q54 0 103 -25q45 -23 65 -55v276l76 18v-749h-76l1 70q-44 -71 -158 -71h-9q-85 2 -144 57q-62 58 -62 147v113zM139 214q0 -64 41 -105q42 -42 111 -42q66 0 105 41q39 39 39 102v112q0 54 -41 95q-44 45 -114 45q-60 0 -101 -43 q-40 -41 -40 -97v-108z" />
<glyph unicode="e" horiz-adv-x="576" d="M143 42q-71 56 -71 168v87q0 100 60 167q64 72 173 72q84 0 142 -46q61 -47 61 -119q0 -146 -192 -146h-168v-38q0 -63 46 -95q41 -29 110 -29q51 0 107 25q47 20 76 48l-4 -86q-28 -20 -73 -36q-56 -19 -110 -19q-97 0 -157 47zM194 426q-46 -46 -46 -117v-21h169 q115 0 115 87q0 96 -127 96q-67 0 -111 -45z" />
<glyph unicode="f" horiz-adv-x="348" d="M165 569v-34h178v-61h-178v-474h-74v474h-68v61h68v38q6 176 170 178q23 0 56 -3l29 -4l-2 -72l-19 4q-6 2 -13 3q-24 4 -42 4q-9 0 -17 -1q-88 -7 -88 -113z" />
<glyph unicode="g" horiz-adv-x="585" d="M517 -14q0 -87 -65 -143q-59 -51 -137 -51q-59 0 -118 15q-23 5 -44 13q-17 6 -29 12l8 78l27 -14q21 -10 41 -18q57 -21 107 -21q52 0 92 32q42 33 42 79v108q-13 -27 -57 -50q-52 -28 -110 -28q-80 0 -140 54q-65 60 -65 153v134q0 84 61 141q59 56 141 56 q61 0 109 -25q39 -20 61 -51v75h76v-549zM395 108q46 44 46 106v103q0 66 -46 109q-44 41 -105 41q-62 0 -104 -41q-42 -42 -42 -109v-105q0 -64 42 -105t107 -41q58 0 102 42z" />
<glyph unicode="h" horiz-adv-x="609" d="M516 0h-75v311q0 153 -130 153q-60 0 -100 -40q-42 -43 -42 -111v-313h-76v735l76 14v-291q56 80 157 80q86 0 139 -63q51 -62 51 -164v-311z" />
<glyph unicode="i" horiz-adv-x="276" d="M100 0v528l76 10v-538h-76zM135 627q-47 0 -47 47q0 46 47 46h7q45 0 45 -46q0 -47 -45 -47h-7z" />
<glyph unicode="j" horiz-adv-x="304" d="M201 -13q0 -99 -47 -152q-37 -40 -93 -40q-18 0 -39 4v70q12 -2 23 -2q78 0 80 109v552l76 10v-551zM160 627q-47 0 -47 47q0 46 47 46h7q45 0 45 -46q0 -47 -45 -47h-7z" />
<glyph unicode="k" horiz-adv-x="573" d="M552 1q-19 -6 -36 -6q-49 0 -83 55l-76 126q-39 65 -56 96q-25 -26 -61 -60l-64 -61v-151h-76v722l76 12v-490l286 292h90q-10 -12 -37 -41l-78 -82l-8 -7l-76 -81l83 -138q46 -75 58 -93q18 -29 45 -29q6 0 13 2v-66z" />
<glyph unicode="l" horiz-adv-x="274" d="M176 0h-76v739l76 11v-750z" />
<glyph unicode="m" horiz-adv-x="895" d="M805 0h-78v344q0 53 -31 87q-32 35 -82 35q-54 0 -93 -35t-39 -87v-344h-73v353q0 52 -36 85q-34 30 -82 30q-45 0 -85 -29q-44 -33 -44 -82v-357h-76v527l76 11v-72q19 30 65 51q42 20 80 20q61 0 104 -32q34 -25 49 -61q19 34 60 60q52 33 117 33q73 0 121 -54 q47 -52 47 -126v-357z" />
<glyph unicode="n" horiz-adv-x="604" d="M519 0h-76v330q0 61 -43 100q-40 37 -98 37t-99 -39q-43 -41 -43 -104v-324h-76v522l76 15v-74q34 36 71 54q43 20 98 20q87 0 140 -67q50 -63 50 -157v-313z" />
<glyph unicode="o" horiz-adv-x="609" d="M136 63q-65 66 -65 175v59q0 102 65 170q67 71 173 71q100 0 166 -71q64 -70 64 -171v-63q0 -104 -64 -170q-64 -67 -164 -67q-110 0 -175 67zM190 421q-43 -47 -43 -115v-78q0 -72 43 -118q45 -47 117 -47q73 0 116 47q40 45 40 118v78q0 69 -40 115q-43 50 -116 50 q-72 0 -117 -50z" />
<glyph unicode="p" horiz-adv-x="583" d="M145 -200l-75 -8v733l75 11v-82q23 33 61 55q49 28 109 28q85 0 144 -61q59 -60 59 -147v-114q0 -97 -60 -158q-58 -59 -146 -59q-58 0 -109 27q-44 24 -58 51v-276zM145 213q0 -62 46 -105q44 -42 102 -42q67 0 107 37q42 40 42 109v105q0 72 -42 113q-40 38 -104 38 q-61 0 -105 -41q-46 -44 -46 -110v-104z" />
<glyph unicode="q" horiz-adv-x="604" d="M512 -189l-76 -18v286q-13 -27 -57 -51q-51 -27 -110 -27q-81 0 -140 54q-66 59 -66 153v131q0 84 61 142q60 56 142 56q60 0 109 -27q38 -21 61 -53v68l76 12v-726zM390 111q46 43 46 105v101q0 66 -46 110q-44 41 -105 41q-63 0 -104 -41q-42 -43 -42 -110v-102 q0 -65 42 -106q42 -40 107 -40q58 0 102 42z" />
<glyph unicode="r" horiz-adv-x="402" d="M100 524l74 11v-90l3 11q43 80 134 80q14 0 30 -2q19 -3 28 -8v-70q-32 8 -57 8q-57 0 -98 -41q-40 -39 -40 -92v-331h-74v524z" />
<glyph unicode="s" horiz-adv-x="504" d="M173 15q-23 7 -48 17l-45 19q8 36 20 71q44 -25 89 -40q53 -18 94 -18q102 0 111 74q1 6 1 12q0 28 -21 46q-21 19 -65 30q-18 5 -49 11q-3 0 -6 1l-42 9q-54 13 -83 33q-52 37 -52 101q0 20 5 42q15 68 75 98q47 23 118 23h17q45 -2 95 -19q38 -14 74 -34l-26 -67 q-35 24 -66 37q-42 18 -84 20q-9 1 -17 1q-38 0 -66 -12q-42 -17 -50 -57q-2 -12 -2 -22q0 -61 70 -79l86 -19q50 -11 81 -24q37 -16 58 -43q23 -31 24 -76q-1 -73 -57 -115q-50 -38 -124 -38h-8q-52 1 -107 18z" />
<glyph unicode="t" horiz-adv-x="407" d="M373 32l-14 -10l-24 -12q-37 -15 -85 -15q-71 0 -107 51q-33 46 -33 125v302h-79v64h79v144l75 15v-159h185v-64h-185v-299q0 -57 14 -81q18 -31 66 -31q69 0 107 43z" />
<glyph unicode="u" horiz-adv-x="614" d="M99 535h76v-323q0 -144 137 -144q61 0 100 40q40 40 40 104v323h76v-535h-76v68q-66 -69 -153 -69q-200 0 -200 228v308z" />
<glyph unicode="v" horiz-adv-x="508" d="M203 0l-169 537h81q5 -14 19 -66l31 -108q9 -33 18 -61q9 -33 18 -62q21 -67 37 -112l15 -55l10 41q2 8 4 13l37 118l19 62l32 110q1 1 1 4l35 116h81l-169 -537h-100z" />
<glyph unicode="w" horiz-adv-x="801" d="M757 537l-147 -537h-104l-103 406l-3 23l-2 -23l-103 -406h-104l-147 537h81l116 -466q2 4 4 12l98 387q12 47 16 65h82l29 -114q7 -30 14 -55l31 -122l30 -117q2 -5 4 -13l7 -31q2 -8 4 -12l116 466h81z" />
<glyph unicode="x" horiz-adv-x="525" d="M493 537l-26 -39l-156 -232l181 -266h-90l-138 202l-94 -138q-10 -14 -16 -24l-27 -40h-91l67 96l115 170l-182 271h92l136 -210l138 210h91z" />
<glyph unicode="y" horiz-adv-x="477" d="M266 -98q-25 -73 -76 -96q-28 -12 -74 -12q-25 0 -54 3l7 72q29 -4 50 -4q27 0 42 7q30 14 49 77l9 40l-195 548h80q6 -16 31 -90l121 -357l134 447h82z" />
<glyph unicode="z" horiz-adv-x="523" d="M448 443q-11 -14 -57 -69l-196 -231q-52 -60 -63 -74h327v-69h-381l-30 87l65 78l258 301h-294l-7 71h378v-94z" />
<glyph unicode="{" horiz-adv-x="341" d="M169 20q-26 -28 -26 -48q0 -43 74 -43q28 0 48 2l11 -67q-5 -1 -13 -1q-7 -1 -16 -1q-17 -1 -30 -1q-59 0 -101 26q-51 30 -51 85q0 45 39 92q10 13 34 38l18 18q9 10 15 18q28 32 28 60q0 14 -7 26q-20 36 -76 39h-41l-10 -1v67l50 1q44 4 67 27q17 15 17 37q0 14 -8 31 q-10 21 -34 46l-20 21q-15 15 -21 22q-24 26 -36 47q-15 28 -15 58q0 56 50 86q42 26 102 26q13 0 30 -1q9 0 16 -1q8 0 13 -1l-11 -67q-20 2 -48 2q-74 0 -74 -44q0 -21 24 -45l29 -32q3 -3 4 -5q22 -23 33 -38q36 -47 36 -95q0 -40 -19 -69q-21 -34 -59 -40 q78 -15 78 -107q0 -46 -34 -94q-13 -18 -32 -39z" />
<glyph unicode="|" horiz-adv-x="274" d="M100 -220v988h74v-988h-74z" />
<glyph unicode="}" horiz-adv-x="330" d="M163 571q26 28 26 48q0 43 -74 43q-28 0 -48 -2l-11 67q5 1 13 1q7 1 17 1q16 1 29 1q59 0 101 -25q51 -31 51 -86q0 -45 -39 -92q-10 -13 -34 -38l-18 -18q-9 -10 -15 -18q-27 -32 -27 -59q0 -14 7 -27q19 -36 75 -39h41l10 1v-67l-50 -1q-44 -4 -67 -26 q-17 -16 -17 -37q0 -15 8 -32q10 -21 34 -46l20 -21q15 -15 21 -22q24 -26 36 -47q15 -28 15 -58q0 -56 -50 -86q-42 -26 -102 -26q-13 0 -29 1q-10 0 -17 1q-8 0 -13 1l11 67q20 -2 48 -2q74 0 74 44q0 21 -24 45l-29 32q-3 3 -4 5q-22 23 -33 38q-36 47 -36 95q0 40 19 69 q21 34 59 40q-78 15 -78 107q0 46 34 94q13 18 32 39z" />
<glyph unicode="~" d="M458 261q-53 -50 -108 -50q-22 0 -47 9q-16 5 -45 19l-21 10q-12 6 -22 9q-24 9 -44 9q-57 0 -111 -53v83q48 47 111 47q22 0 47 -9q16 -5 45 -19l21 -10q12 -6 22 -9q24 -9 44 -9q49 0 108 56v-83z" />
<glyph unicode="&#xa1;" horiz-adv-x="297" d="M115 304h62l9 -243v-263h-80v263zM146 537q53 0 53 -57q0 -55 -53 -55t-53 55q0 57 53 57z" />
<glyph unicode="&#xa2;" horiz-adv-x="554" d="M482 77q0 -1 -12 -8q-16 -10 -35 -18q-27 -11 -56 -18q-37 -8 -77 -8h-9l-6 -61h-47l6 67q-72 16 -115 71q-44 54 -44 126v136q0 81 64 141q63 59 147 61l6 61h47l-6 -63q73 -8 127 -40l-21 -70l-44 23q-34 15 -69 19l-39 -403h5q56 0 103 22q17 7 33 18l21 15zM165 228 q0 -88 88 -125l39 395q-52 -5 -89 -45q-38 -40 -38 -89v-136z" />
<glyph unicode="&#xa3;" horiz-adv-x="573" d="M306 85q-4 -8 -8 -13l220 1v-73h-454l-3 68l78 4q49 5 72 21q32 25 32 70q0 19 -6 42q-8 29 -25 62q-13 25 -30 49h-113v62h80q-46 87 -46 168q0 92 68 153q66 59 160 59q111 0 177 -80l-53 -59q-42 64 -124 64q-61 0 -104 -37q-45 -40 -45 -100q0 -32 19 -84 q17 -49 40 -84h241l-14 -62h-191q31 -47 42 -104q4 -24 4 -46q0 -36 -11 -66z" />
<glyph unicode="&#xa4;" horiz-adv-x="574" d="M464 36l-51 55q-55 -39 -126 -39q-70 0 -126 39l-51 -55l-48 45l52 55q-43 62 -43 141q0 82 43 144l-52 54l48 45l51 -55q55 40 126 40t126 -40l51 55l48 -45l-52 -54q43 -62 43 -143q0 -80 -43 -142l52 -55zM286 442q-148 0 -148 -164t148 -164q149 0 149 164t-149 164z " />
<glyph unicode="&#xa5;" horiz-adv-x="586" d="M406 435l-44 -85h132v-48h-152q-11 -38 -13 -75h165v-48h-165v-179h-78v179h-164v48h164q-2 40 -13 75h-151v48h130l-165 337l-32 62h90l33 -64l69 -147l31 -65q31 -63 47 -119q8 29 23 62l126 268l34 65h90l-82 -160z" />
<glyph unicode="&#xa6;" horiz-adv-x="274" d="M100 0v301h74v-301h-74zM100 432v301h74v-301h-74z" />
<glyph unicode="&#xa7;" horiz-adv-x="550" d="M476 87q0 -71 -51 -115q-48 -41 -118 -41h-7q-21 1 -49 5q-10 1 -24 4q-3 0 -6 1l-13 2q-3 1 -6 1q-31 6 -51 8q-21 2 -40 2h-13q2 40 10 70q8 1 18 1q14 0 30 -2q19 -3 49 -9l47 -11q27 -5 46 -5q94 0 103 74q1 10 1 18q0 66 -81 77q-10 2 -26 4l-25 3q-31 4 -50 8 q-56 10 -86 31q-54 38 -54 108q0 8 1 17q8 75 62 111l-9 5q-54 39 -54 108q0 9 1 17q8 79 68 116q48 28 126 28h11q25 -1 51 -4l83 -15q21 -4 37 -4q-6 -35 -14 -67q-12 0 -32 4q-8 1 -19 4l-66 14q-26 4 -46 5h-15q-41 0 -67 -14q-37 -20 -43 -66q-1 -6 -1 -12 q0 -64 73 -79q9 -2 45 -6l49 -6q55 -7 85 -22q70 -36 70 -127q0 -78 -59 -121q59 -36 59 -120zM267 414q-11 1 -19 1q-22 0 -32 -4q-54 -17 -61 -72q-1 -6 -1 -12q0 -64 73 -79q27 -6 64 -9h7q93 0 103 74q1 10 1 18q0 67 -81 78z" />
<glyph unicode="&#xa8;" horiz-adv-x="500" d="M156 604q-49 0 -49 50q0 49 49 49q48 0 48 -49q0 -50 -48 -50zM345 604q-49 0 -49 50q0 49 49 49q48 0 48 -49q0 -50 -48 -50z" />
<glyph unicode="&#xa9;" horiz-adv-x="753" d="M621 108q-87 -104 -245 -104q-157 0 -246 105q-83 99 -83 258q0 165 85 264q89 101 244 101q154 0 242 -101q86 -99 86 -264q0 -161 -83 -259zM583 603q-75 87 -207 87q-139 0 -212 -88q-68 -83 -68 -235q0 -147 68 -231q74 -90 212 -90t211 86q69 83 69 235 q0 150 -73 236zM505 223q0 -1 -8 -7q-5 -3 -10 -7q-7 -4 -14 -7q-19 -10 -39 -15q-26 -7 -53 -7q-65 0 -107 41t-42 100v94q0 57 45 99q45 41 104 41q68 0 117 -29q-2 -9 -7 -25q0 -2 -1 -4l-6 -21q-4 3 -7 4l-9 5q-12 6 -23 10q-31 12 -63 12q-38 0 -67 -28t-29 -64v-94 q0 -37 29 -65q28 -28 67 -28q38 0 72 18l23 15l14 12z" />
<glyph unicode="&#xaa;" horiz-adv-x="414" d="M295 367v39q-25 -19 -49 -28q-31 -13 -67 -13q-133 0 -133 121q0 119 138 119q36 0 69 -14q26 -11 42 -27v35q0 101 -91 101q-34 0 -66 -12q-28 -11 -52 -29l-18 50q20 14 53 25q42 14 85 14q141 0 143 -149v-232h-54zM194 413h2q47 0 88 39q5 3 8 8q4 6 4 13v32 q0 7 -4 12q-2 3 -8 8q-16 12 -37 21q-27 10 -53 10q-95 0 -95 -70q0 -73 95 -73z" />
<glyph unicode="&#xab;" horiz-adv-x="543" d="M191 41l-144 231l144 231h80l-126 -231l126 -231h-80zM417 41l-145 231l145 231h80l-126 -231l126 -231h-80z" />
<glyph unicode="&#xac;" horiz-adv-x="573" d="M439 112v199h-381v70h456v-269h-75z" />
<glyph unicode="&#xad;" horiz-adv-x="250" d="M23 228v75h204v-75h-204z" />
<glyph unicode="&#xae;" horiz-adv-x="455" d="M358 417q-47 -53 -130 -53t-131 53q-47 51 -47 136q0 87 47 138q47 52 130 52q81 0 129 -51t48 -139q0 -86 -46 -136zM228 714q-145 0 -145 -161q0 -73 34 -115q38 -46 111 -46q143 0 143 161q-2 161 -143 161zM293 485l3 -30l-15 -1q-21 0 -31 16q-4 6 -9 16q-2 3 -4 8 l-4 9q-6 12 -12 21q-6 8 -12 8h-17v-77h-30v198h67q26 0 42 -18t16 -42q0 -43 -39 -56q1 -1 1 -2q6 -7 10 -15l6 -15q4 -5 5 -11l5 -8q2 -3 8 -3zM192 624v-63h36q13 0 21 10q8 8 8 22q0 12 -8 22q-7 9 -20 9h-37z" />
<glyph unicode="&#xaf;" horiz-adv-x="500" d="M127 644v78h247v-78h-247z" />
<glyph unicode="&#xb0;" horiz-adv-x="391" d="M195 457q-151 0 -151 142q0 144 150 144q153 0 153 -143t-152 -143zM194 685q-80 0 -80 -85q0 -86 81 -86q82 0 82 86q0 85 -83 85z" />
<glyph unicode="&#xb1;" d="M457 0h-396v73h396v-73zM221 282h-160v74h160v175h77v-175h159v-74h-159v-173h-77v173z" />
<glyph unicode="&#xb2;" horiz-adv-x="405" d="M56 864q26 31 51 51q32 28 58 33q23 5 44 5q63 0 98 -51q23 -35 23 -70q0 -48 -44 -97l-36 -39q-12 -14 -39 -42l-75 -81h194l5 -50h-258l-18 47l187 200q32 34 32 65q0 26 -23 50q-24 25 -51 25q-29 0 -61 -28q-21 -19 -50 -56z" />
<glyph unicode="&#xb3;" horiz-adv-x="405" d="M276 710q46 -38 46 -93v-10q0 -56 -37 -93q-36 -37 -90 -37h-3q-37 0 -78 25q-16 9 -33 23q-13 10 -29 25l34 38l22 -21q13 -12 26 -21q32 -23 58 -23q79 0 79 84v10q0 82 -81 82h-58v45h57q75 0 75 77v11q-3 78 -73 78q-27 0 -56 -19q-10 -7 -24 -18l-22 -19l-31 40 q30 28 58 42q37 19 75 19q53 0 88 -34q35 -35 35 -89v-11q0 -61 -57 -100z" />
<glyph unicode="&#xb4;" horiz-adv-x="500" d="M351 733l-124 -151h-79v9l95 142h108z" />
<glyph unicode="&#xb5;" horiz-adv-x="618" d="M442 537h76v-524l-66 -15q-16 36 -74 36q-17 0 -35 -6q-8 -2 -16 -5l-16 -7q-21 -9 -34 -12q-20 -6 -40 -6q-35 0 -62 11v-228h-76v757h76v-349q0 -61 14 -85q18 -30 67 -30q21 0 59 13q37 12 56 12q26 0 51 -10q20 -8 20 -10v458z" />
<glyph unicode="&#xb6;" horiz-adv-x="538" d="M391 -72v664q-30 8 -67 8v-672h-69v292h-35q-95 0 -139 47q-49 51 -49 170q0 234 250 234q43 0 86 -4q51 -5 92 -15v-724h-69z" />
<glyph unicode="&#xb7;" horiz-adv-x="272" d="M136 210q-60 0 -60 58q0 57 60 57t60 -57q0 -58 -60 -58z" />
<glyph unicode="&#xb8;" horiz-adv-x="500" d="M247 -220q-43 0 -92 10l11 55q45 -12 78 -12q37 0 37 33q0 18 -15 27q-15 8 -68 21l24 98h49l-16 -64q90 -25 90 -86q0 -82 -98 -82z" />
<glyph unicode="&#xb9;" horiz-adv-x="405" d="M245 922v-403h-50v355l-69 -69l-27 40l105 97z" />
<glyph unicode="&#xba;" horiz-adv-x="439" d="M91 411q-45 46 -45 122v47q0 71 45 119q47 49 121 49q70 0 116 -50q45 -48 45 -119v-50q0 -72 -45 -118q-44 -47 -114 -47q-77 0 -123 47zM129 666q-30 -33 -30 -80v-60q0 -115 112 -115q109 0 109 115v60q0 48 -28 80q-30 35 -81 35t-82 -35z" />
<glyph unicode="&#xbb;" horiz-adv-x="543" d="M352 41h-80l127 231l-127 231h80l145 -231zM126 41h-79l126 231l-126 231h79l145 -231z" />
<glyph unicode="&#xbc;" horiz-adv-x="970" d="M382 0h-58l268 748h58zM922 110h-56v-110h-50v110h-175l-18 48l134 262q8 13 23 30l26 29h60l-4 -5q-1 0 -2 -2q-2 -1 -2 -2q-6 -6 -9 -10l-18 -20q-20 -24 -30 -44q-63 -118 -121 -239h136v140h50v-140h56v-47zM258 711v-403h-50v355l-69 -69l-27 40l105 97z" />
<glyph unicode="&#xbd;" horiz-adv-x="970" d="M381 0h-57l269 748h57zM258 711v-403h-50v355l-69 -69l-27 40l105 97zM620 341q26 31 51 51q32 28 58 33q23 5 44 5q63 0 98 -51q23 -35 23 -70q0 -48 -44 -97l-36 -39q-12 -14 -39 -42l-75 -81h194l5 -50h-258l-18 47l187 200q32 34 32 65q0 26 -23 50q-24 25 -51 25 q-29 0 -61 -28q-21 -19 -50 -56z" />
<glyph unicode="&#xbe;" horiz-adv-x="970" d="M393 0h-58l268 748h58zM281 504q46 -38 46 -93v-10q0 -56 -37 -93q-36 -37 -90 -37h-3q-37 0 -78 25q-16 9 -33 23q-13 10 -29 25l34 38l22 -21q13 -12 26 -21q32 -23 58 -23q79 0 79 84v10q0 82 -81 82h-58v45h57q75 0 75 77v11q-3 78 -73 78q-27 0 -56 -19l-46 -37 l-31 40q30 28 58 42q37 19 75 19q53 0 88 -34q35 -35 35 -89v-11q0 -61 -57 -100zM915 110h-56v-110h-50v110h-175l-18 48l134 262q8 13 23 30l26 29h60l-4 -5q-1 0 -2 -2q-2 -1 -2 -2q-6 -6 -9 -10l-18 -20q-20 -24 -30 -44q-63 -118 -121 -239h136v140h50v-140h56v-47z " />
<glyph unicode="&#xbf;" horiz-adv-x="452" d="M79 33q11 15 29 31l69 57q18 18 30 35q30 43 31 102l2 54h70v-77q0 -55 -26 -101q-11 -19 -27 -38q-13 -15 -32 -33q-3 -4 -8 -8l-23 -22q-17 -17 -27 -29q-27 -32 -27 -63q0 -70 71 -70q8 0 16 1q87 7 149 87l29 -92q-83 -80 -180 -80q-24 0 -48 5q-127 24 -127 151 q0 51 29 90zM268 544q58 0 58 -55q0 -56 -59 -56t-59 56q0 55 60 55z" />
<glyph unicode="&#xc0;" horiz-adv-x="631" d="M267 788l-105 117h100l84 -108v-9h-79zM348 749l71 -212l181 -537h-83l-22 61l-19 56q-12 37 -19 56l-22 61h-261l-80 -234h-82l255 749h81zM415 308l-104 319l-4 32l-4 -32l-105 -319h217z" />
<glyph unicode="&#xc1;" horiz-adv-x="631" d="M270 788v9l84 108h101l-106 -117h-79zM348 749l71 -212l181 -537h-83l-22 61l-19 56q-12 37 -19 56l-22 61h-261l-80 -234h-82l255 749h81zM415 308l-104 319l-4 32l-4 -32l-105 -319h217z" />
<glyph unicode="&#xc2;" horiz-adv-x="631" d="M378 788l-66 87l-64 -87h-73v9l78 108h121l79 -108v-9h-75zM348 749l71 -212l181 -537h-83l-22 61l-19 56q-12 37 -19 56l-22 61h-261l-80 -234h-82l255 749h81zM415 308l-104 319l-4 32l-4 -32l-105 -319h217z" />
<glyph unicode="&#xc3;" horiz-adv-x="631" d="M466 904q-8 -59 -33 -84q-19 -20 -53 -20q-30 0 -55 14l-50 29q-16 9 -28 9q-28 0 -37 -50h-63q8 59 33 84q19 20 53 20q30 0 55 -14l50 -29q15 -9 28 -9q27 0 37 50h63zM348 749l71 -212l181 -537h-83l-22 61l-19 56q-12 37 -19 56l-22 61h-261l-80 -234h-82l255 749h81 zM415 308l-104 319l-4 32l-4 -32l-105 -319h217z" />
<glyph unicode="&#xc4;" horiz-adv-x="631" d="M224 815q-47 0 -47 46q0 44 48 44q47 0 47 -44q0 -46 -48 -46zM410 815q-48 0 -48 46q0 44 48 44q47 0 47 -44q0 -46 -47 -46zM356 749l71 -212l181 -537h-83l-20 55l-51 150q-10 29 -64 29h-208l-80 -234h-82l255 749h81zM385 308q13 0 24 -2l17 -5l-107 318l-4 32 l-4 -32l-105 -311h179z" />
<glyph unicode="&#xc5;" horiz-adv-x="631" d="M316 780q-110 0 -110 81t111 81q110 0 110 -81t-111 -81zM317 904q-51 0 -51 -43q0 -42 51 -42q50 0 50 42q0 43 -50 43zM356 749l71 -212l181 -537h-83l-20 55l-51 150q-10 29 -64 29h-208l-80 -234h-82l255 749h81zM385 308q13 0 24 -2l17 -5l-107 318l-4 32l-4 -32 l-105 -311h179z" />
<glyph unicode="&#xc6;" horiz-adv-x="905" d="M439 0v280q0 43 5 61h-224l-115 -341h-82l255 749h570v-75h-332v-189q4 -48 12 -58q10 -12 55 -15h234v-75h-249q-45 -3 -49 -27q-3 -16 -3 -47v-187h328l10 -76h-415zM244 415h201q-6 17 -6 55v206l-107 1z" />
<glyph unicode="&#xc7;" horiz-adv-x="590" d="M351 -10l-10 -40q90 -25 90 -86q0 -82 -98 -82q-43 0 -92 10l11 55q45 -12 78 -12q37 0 37 33q0 18 -15 27q-15 8 -68 21l18 75q-99 9 -162 85q-70 82 -70 214v171q0 127 70 211q70 86 181 89h6q122 0 221 -77l-50 -63q-79 63 -167 65h-7q-75 -2 -124 -61 q-52 -62 -52 -164v-171q0 -106 51 -167q49 -55 125 -58h14q36 3 92 28q48 21 85 46l41 -71q-45 -27 -101 -50q-59 -24 -104 -28z" />
<glyph unicode="&#xc8;" horiz-adv-x="595" d="M287 788l-105 117h100l84 -108v-9h-79zM109 749h425v-75h-348v-262h317v-75h-317v-261h344l10 -76h-431v749z" />
<glyph unicode="&#xc9;" horiz-adv-x="595" d="M244 788v9l84 108h101l-106 -117h-79zM109 749h425v-75h-348v-262h317v-75h-317v-261h344l10 -76h-431v749z" />
<glyph unicode="&#xca;" horiz-adv-x="595" d="M380 788l-66 87l-64 -87h-73v9l78 108h121l79 -108v-9h-75zM109 749h425v-75h-348v-262h317v-75h-317v-261h344l10 -76h-431v749z" />
<glyph unicode="&#xcb;" horiz-adv-x="595" d="M232 815q-47 0 -47 46q0 44 48 44q47 0 47 -44q0 -46 -48 -46zM418 815q-48 0 -48 46q0 44 48 44q47 0 47 -44q0 -46 -47 -46zM109 749h425v-75h-348v-262h317v-75h-317v-261h344l10 -76h-431v749z" />
<glyph unicode="&#xcc;" horiz-adv-x="317" d="M120 788l-105 117h100l84 -108v-9h-79zM122 749h78v-749h-78v749z" />
<glyph unicode="&#xcd;" horiz-adv-x="299" d="M108 788v9l84 108h101l-106 -117h-79zM108 749h78v-749h-78v749z" />
<glyph unicode="&#xce;" horiz-adv-x="296" d="M213 788l-64 88l-62 -88h-70v9l75 109h117l77 -109v-9h-73zM108 749h78v-749h-78v749z" />
<glyph unicode="&#xcf;" horiz-adv-x="294" d="M57 814q-45 0 -45 46q0 44 46 44t46 -44q0 -46 -47 -46zM238 814q-47 0 -47 46q0 44 47 44q45 0 45 -44q0 -46 -45 -46zM108 749h78v-749h-78v749z" />
<glyph unicode="&#xd0;" horiz-adv-x="705" d="M616 446v-147q0 -138 -75 -223q-67 -73 -181 -76h-251v340h-84v70h84v340h251q114 -3 181 -79q75 -86 75 -225zM535 446q-5 109 -42 164q-43 65 -135 66h-172v-266h161v-70h-161v-267h172q92 1 135 64q37 54 42 162v147z" />
<glyph unicode="&#xd1;" horiz-adv-x="715" d="M533 904q-8 -59 -33 -84q-19 -20 -53 -20q-30 0 -55 14l-50 29q-16 9 -28 9q-28 0 -37 -50h-63q8 59 33 84q19 20 53 20q30 0 55 -14l50 -29q15 -9 28 -9q27 0 37 50h63zM608 749v-749h-79l-344 605v-605h-78v749h81l342 -600v600h78z" />
<glyph unicode="&#xd2;" horiz-adv-x="695" d="M308 788l-105 117h100l84 -108v-9h-79zM69 447q1 144 80 229q75 81 196 81t199 -81q81 -86 81 -229v-147q0 -141 -80 -227q-78 -83 -198 -83q-121 0 -198 82q-79 85 -79 226zM150 305q0 -110 50 -174q52 -69 149 -69q96 0 147 69q47 64 47 171v143q0 106 -47 171 q-53 70 -150 70q-95 0 -147 -70q-49 -66 -49 -175v-136z" />
<glyph unicode="&#xd3;" horiz-adv-x="695" d="M317 788v9l84 108h101l-106 -117h-79zM69 447q1 144 80 229q75 81 196 81t199 -81q81 -86 81 -229v-147q0 -141 -80 -227q-78 -83 -198 -83q-121 0 -198 82q-79 85 -79 226zM150 305q0 -110 50 -174q52 -69 149 -69q96 0 147 69q47 64 47 171v143q0 106 -47 171 q-53 70 -150 70q-95 0 -147 -70q-49 -66 -49 -175v-136z" />
<glyph unicode="&#xd4;" horiz-adv-x="693" d="M421 788l-66 87l-64 -87h-73v9l78 108h121l79 -108v-9h-75zM69 447q1 144 80 229q75 81 196 81t199 -81q81 -86 81 -229v-147q0 -141 -80 -227q-78 -83 -198 -83q-121 0 -198 82q-79 85 -79 226zM150 305q0 -110 50 -174q52 -69 149 -69q96 0 147 69q47 64 47 171v143 q0 106 -47 171q-53 70 -150 70q-95 0 -147 -70q-49 -66 -49 -175v-136z" />
<glyph unicode="&#xd5;" horiz-adv-x="695" d="M508 905q-8 -59 -33 -84q-19 -20 -53 -20q-30 0 -55 14l-50 29q-16 9 -28 9q-28 0 -37 -50h-63q8 59 33 84q19 20 53 20q30 0 55 -14l50 -29q15 -9 28 -9q27 0 37 50h63zM69 447q1 144 80 229q75 81 196 81t199 -81q81 -86 81 -229v-147q0 -141 -80 -227 q-78 -83 -198 -83q-121 0 -198 82q-79 85 -79 226zM150 305q0 -110 50 -174q52 -69 149 -69q96 0 147 69q47 64 47 171v143q0 106 -47 171q-53 70 -150 70q-95 0 -147 -70q-49 -66 -49 -175v-136z" />
<glyph unicode="&#xd6;" horiz-adv-x="718" d="M265 815q-47 0 -47 46q0 44 48 44q47 0 47 -44q0 -46 -48 -46zM451 815q-48 0 -48 46q0 44 48 44q47 0 47 -44q0 -46 -47 -46zM335 -10q-120 0 -194 91q-71 86 -71 219v151q0 130 71 216q74 90 194 90h14q3 1 6 1t6 -1h3q118 0 191 -89q71 -86 71 -221v-147 q0 -131 -71 -219q-74 -91 -191 -91h-29zM202 115q45 -50 135 -53h25q91 0 138 64q44 59 44 165v160q-3 112 -45 171q-46 63 -137 63h-25q-93 0 -140 -64q-43 -58 -46 -170v-155q0 -123 51 -181z" />
<glyph unicode="&#xd7;" d="M407 66l-148 148l-147 -148l-54 54l147 148l-146 146l53 55l147 -147l147 147l54 -55l-147 -146l148 -148z" />
<glyph unicode="&#xd8;" horiz-adv-x="700" d="M551 671q73 -85 73 -223v-147q0 -131 -71 -219q-74 -91 -191 -91h-29q-94 0 -163 59l-56 -95h-47l74 124q-73 87 -73 222v151q0 130 71 216q74 90 194 90h14q3 1 6 1t6 -1h3q93 0 161 -58l55 90h46zM149 297q0 -92 32 -153l304 494q-47 48 -125 48h-25q-93 0 -140 -64 q-43 -58 -46 -170v-155zM360 63q91 0 138 64q44 59 44 165v160q-2 93 -33 151l-302 -493q45 -44 128 -47h25z" />
<glyph unicode="&#xd9;" horiz-adv-x="726" d="M341 788l-105 117h100l84 -108v-9h-79zM103 265v484h78v-483q0 -91 51 -148q51 -58 138 -58q83 0 134 58q49 57 49 148v483h78v-486q0 -122 -77 -200q-75 -74 -183 -74q-115 0 -190 74q-78 77 -78 202z" />
<glyph unicode="&#xda;" horiz-adv-x="726" d="M315 788v9l84 108h101l-106 -117h-79zM103 265v484h78v-483q0 -91 51 -148q51 -58 138 -58q83 0 134 58q49 57 49 148v483h78v-486q0 -122 -77 -200q-75 -74 -183 -74q-115 0 -190 74q-78 77 -78 202z" />
<glyph unicode="&#xdb;" horiz-adv-x="726" d="M429 788l-66 87l-64 -87h-73v9l78 108h121l79 -108v-9h-75zM103 265v484h78v-483q0 -91 51 -148q51 -58 138 -58q83 0 134 58q49 57 49 148v483h78v-486q0 -122 -77 -200q-75 -74 -183 -74q-115 0 -190 74q-78 77 -78 202z" />
<glyph unicode="&#xdc;" horiz-adv-x="726" d="M275 815q-47 0 -47 46q0 44 48 44q47 0 47 -44q0 -46 -48 -46zM461 815q-48 0 -48 46q0 44 48 44q47 0 47 -44q0 -46 -47 -46zM355 -12q-112 0 -180 67q-72 70 -72 190v504h78v-497q0 -189 176 -189h23q78 0 127 52q47 49 47 124q0 8 -1 17v493h78v-506q0 -109 -69 -180 q-71 -74 -183 -75h-24z" />
<glyph unicode="&#xdd;" horiz-adv-x="571" d="M222 788v9l84 108h101l-106 -117h-79zM556 749l-82 -160l-75 -154q-5 -11 -13 -26l-14 -27q-17 -32 -26 -53q-24 -54 -24 -109v-220h-78v221q0 54 -20 100l-179 366l-32 62h90l33 -64l69 -147l31 -65q31 -63 47 -119q8 29 23 62l126 268l34 65h90z" />
<glyph unicode="&#xde;" horiz-adv-x="621" d="M331 587q89 0 151 -63q63 -62 63 -151q0 -88 -63 -151q-62 -63 -151 -63h-146v-159h-77v732h77v-145h146zM468 373q0 55 -40 97q-40 40 -97 40h-146v-274h146q57 0 97 40q40 42 40 97z" />
<glyph unicode="&#xdf;" horiz-adv-x="573" d="M377 -10q-26 0 -52 5q-32 5 -80 20l17 78q50 -18 72 -23q18 -4 38 -4q70 0 70 69q0 29 -30 57q-11 10 -30 23l-35 24q-21 14 -35 25q-18 15 -30 29q-30 36 -30 79q0 36 22 72q9 15 23 32l53 58q14 16 23 29q22 32 22 60q0 41 -20 58q-24 19 -83 19q-63 0 -87 -22t-24 -82 v-596h-89v592q0 93 42 137q48 49 161 49q190 0 190 -147q0 -37 -23 -75q-9 -15 -23 -32l-53 -58q-15 -16 -23 -28q-23 -31 -23 -57q0 -28 30 -55q11 -10 30 -23l8 -6q3 -3 9 -6q3 -3 4 -3l14 -10q20 -14 34 -26q18 -16 30 -31q30 -38 30 -85q0 -146 -152 -146z" />
<glyph unicode="&#xe0;" horiz-adv-x="546" d="M268 582l-124 151h108l95 -142v-9h-79zM411 0v55q-36 -27 -69 -40q-44 -18 -94 -18q-83 0 -135 45q-53 47 -53 125q0 168 195 168q51 0 96 -19q38 -16 60 -38v49q0 63 -29 101q-32 42 -93 42q-49 0 -105 -20q-20 -7 -41 -17q-16 -7 -31 -16l-20 78l27 10q23 8 44 14 q29 8 57 13q34 5 66 5q93 0 148 -59q52 -56 53 -146v-332h-76zM135 168q0 -102 133 -104h5q36 0 67 15q26 13 56 40l10 11q6 9 6 19v45q0 14 -16 28q-23 18 -53 30q-38 15 -75 15q-133 0 -133 -99z" />
<glyph unicode="&#xe1;" horiz-adv-x="546" d="M431 733l-124 -151h-79v9l95 142h108zM411 0v55q-36 -27 -69 -40q-44 -18 -94 -18q-83 0 -135 45q-53 47 -53 125q0 168 195 168q51 0 96 -19q38 -16 60 -38v49q0 63 -29 101q-32 42 -93 42q-49 0 -105 -20q-20 -7 -41 -17q-16 -7 -31 -16l-20 78l27 10q23 8 44 14 q29 8 57 13q34 5 66 5q93 0 148 -59q52 -56 53 -146v-332h-76zM135 168q0 -102 133 -104h5q36 0 67 15q26 13 56 40l10 11q6 9 6 19v45q0 14 -16 28q-23 18 -53 30q-38 15 -75 15q-133 0 -133 -99z" />
<glyph unicode="&#xe2;" horiz-adv-x="546" d="M354 582l-76 117l-75 -117h-77v9l90 142h127l90 -142v-9h-79zM411 0v55q-36 -27 -69 -40q-44 -18 -94 -18q-83 0 -135 45q-53 47 -53 125q0 168 195 168q51 0 96 -19q38 -16 60 -38v49q0 63 -29 101q-32 42 -93 42q-49 0 -105 -20q-20 -7 -41 -17q-16 -7 -31 -16l-20 78 l27 10q23 8 44 14q29 8 57 13q34 5 66 5q93 0 148 -59q52 -56 53 -146v-332h-76zM135 168q0 -102 133 -104h5q36 0 67 15q26 13 56 40l10 11q6 9 6 19v45q0 14 -16 28q-23 18 -53 30q-38 15 -75 15q-133 0 -133 -99z" />
<glyph unicode="&#xe3;" horiz-adv-x="546" d="M446 705q-10 -75 -36 -104q-21 -23 -58 -23q-33 0 -60 18l-56 37q-18 11 -32 11q-34 0 -41 -62h-68q10 75 37 104q20 23 57 23q33 0 60 -18l56 -37q20 -11 32 -11q34 0 41 62h68zM411 0v55q-36 -27 -69 -40q-44 -18 -94 -18q-83 0 -135 45q-53 47 -53 125q0 168 195 168 q51 0 96 -19q38 -16 60 -38v49q0 63 -29 101q-32 42 -93 42q-49 0 -105 -20q-20 -7 -41 -17q-16 -7 -31 -16l-20 78l27 10q23 8 44 14q29 8 57 13q34 5 66 5q93 0 148 -59q52 -56 53 -146v-332h-76zM135 168q0 -102 133 -104h5q36 0 67 15q26 13 56 40l10 11q6 9 6 19v45 q0 14 -16 28q-23 18 -53 30q-38 15 -75 15q-133 0 -133 -99z" />
<glyph unicode="&#xe4;" horiz-adv-x="546" d="M184 604q-49 0 -49 50q0 49 49 49q48 0 48 -49q0 -50 -48 -50zM373 604q-49 0 -49 50q0 49 49 49q48 0 48 -49q0 -50 -48 -50zM411 0v55q-36 -27 -69 -40q-44 -18 -94 -18q-83 0 -135 45q-53 47 -53 125q0 168 195 168q51 0 96 -19q38 -16 60 -38v49q0 63 -29 101 q-32 42 -93 42q-49 0 -105 -20q-20 -7 -41 -17q-16 -7 -31 -16l-20 78l27 10q23 8 44 14q29 8 57 13q34 5 66 5q93 0 148 -59q52 -56 53 -146v-332h-76zM135 168q0 -102 133 -104h5q36 0 67 15q26 13 56 40l10 11q6 9 6 19v45q0 14 -16 28q-23 18 -53 30q-38 15 -75 15 q-133 0 -133 -99z" />
<glyph unicode="&#xe5;" horiz-adv-x="546" d="M278 579q-116 0 -116 90t116 90q115 0 115 -90t-115 -90zM278 718q-53 0 -53 -49t53 -49q52 0 52 49t-52 49zM411 0v55q-36 -27 -69 -40q-44 -18 -94 -18q-83 0 -135 45q-53 47 -53 125q0 168 195 168q51 0 96 -19q38 -16 60 -38v49q0 63 -29 101q-32 42 -93 42 q-49 0 -105 -20q-20 -7 -41 -17q-16 -7 -31 -16l-20 78l27 10q23 8 44 14q29 8 57 13q34 5 66 5q93 0 148 -59q52 -56 53 -146v-332h-76zM135 168q0 -102 133 -104h5q36 0 67 15q26 13 56 40l10 11q6 9 6 19v45q0 14 -16 28q-23 18 -53 30q-38 15 -75 15q-133 0 -133 -99z " />
<glyph unicode="&#xe6;" horiz-adv-x="887" d="M536 80q42 -23 102 -23q49 0 102 24q20 9 41 22q13 8 30 20l-4 -80q-21 -18 -65 -34q-54 -19 -108 -19q-91 0 -146 40v-30l-62 -11q-28 39 -68 39q-16 0 -37 -6l-19 -5l-39 -14l-19 -5q-23 -6 -42 -6q-56 0 -97 43q-44 47 -44 122q0 68 42 112q25 27 63 42q43 16 102 16 q50 0 95 -23q37 -19 49 -41v64q0 63 -29 101q-32 42 -93 42q-49 0 -105 -20q-20 -7 -41 -17q-16 -7 -31 -16l-20 78l27 10q23 8 44 14q29 8 57 13q34 5 66 5q116 0 170 -89q30 40 72 63q46 25 102 25h6q76 0 135 -53q62 -56 62 -136q0 -71 -41 -103q-36 -27 -108 -27h-115 q-81 0 -81 -66q0 -45 47 -71zM412 143q-1 47 -38 81q-40 36 -99 36q-62 0 -99 -25q-40 -27 -40 -78q0 -43 26 -68q22 -22 57 -26q6 -1 12 -1q11 0 24 3t33 11l31 11q18 6 32 6q25 0 46 -12q15 -9 15 -12v74zM488 254l7 7q7 6 16 11q12 6 25 10q17 4 36 4l100 -1q41 0 61 11 q26 15 26 53q0 46 -29 80q-35 41 -100 41q-55 0 -96 -40t-46 -98v-78z" />
<glyph unicode="&#xe7;" horiz-adv-x="484" d="M271 -52q90 -25 90 -86q0 -82 -98 -82q-43 0 -92 10l11 55q45 -12 78 -12q37 0 37 33q0 18 -15 27q-15 8 -68 21l21 86q-78 13 -125 69q-48 56 -48 131v135q0 82 65 143q65 60 150 60q48 0 91 -13q34 -10 69 -30l-21 -71l-22 13q-16 9 -29 15q-41 18 -86 18 q-55 0 -97 -41t-42 -94v-135q0 -54 41 -94q42 -41 98 -41q55 0 98 22q15 7 30 18q5 3 10 8l9 7l21 -71q0 -1 -10 -8q-13 -9 -30 -17q-24 -11 -52 -18q-34 -8 -72 -9z" />
<glyph unicode="&#xe8;" horiz-adv-x="561" d="M254 582l-124 151h108l95 -142v-9h-79zM133 42q-71 56 -71 168v87q0 100 60 167q64 72 173 72q84 0 142 -46q61 -47 61 -119q0 -146 -192 -146h-168v-38q0 -63 46 -95q41 -29 110 -29q51 0 107 25q47 20 76 48l-4 -86q-28 -20 -73 -36q-56 -19 -110 -19q-97 0 -157 47z M184 426q-46 -46 -46 -117v-21h169q115 0 115 87q0 96 -127 96q-67 0 -111 -45z" />
<glyph unicode="&#xe9;" horiz-adv-x="562" d="M438 733l-124 -151h-79v9l95 142h108zM133 42q-71 56 -71 168v87q0 100 60 167q64 72 173 72q84 0 142 -46q61 -47 61 -119q0 -146 -192 -146h-168v-38q0 -63 46 -95q41 -29 110 -29q51 0 107 25q47 20 76 48l-4 -86q-28 -20 -73 -36q-56 -19 -110 -19q-97 0 -157 47z M184 426q-46 -46 -46 -117v-21h169q115 0 115 87q0 96 -127 96q-67 0 -111 -45z" />
<glyph unicode="&#xea;" horiz-adv-x="561" d="M360 582l-76 117l-75 -117h-77v9l90 142h127l90 -142v-9h-79zM133 42q-71 56 -71 168v87q0 100 60 167q64 72 173 72q84 0 142 -46q61 -47 61 -119q0 -146 -192 -146h-168v-38q0 -63 46 -95q41 -29 110 -29q51 0 107 25q47 20 76 48l-4 -86q-28 -20 -73 -36 q-56 -19 -110 -19q-97 0 -157 47zM184 426q-46 -46 -46 -117v-21h169q115 0 115 87q0 96 -127 96q-67 0 -111 -45z" />
<glyph unicode="&#xeb;" horiz-adv-x="559" d="M190 604q-49 0 -49 50q0 49 49 49q48 0 48 -49q0 -50 -48 -50zM379 604q-49 0 -49 50q0 49 49 49q48 0 48 -49q0 -50 -48 -50zM133 42q-71 56 -71 168v87q0 100 60 167q64 72 173 72q84 0 142 -46q61 -47 61 -119q0 -146 -192 -146h-168v-38q0 -63 46 -95q41 -29 110 -29 q51 0 107 25q47 20 76 48l-4 -86q-28 -20 -73 -36q-56 -19 -110 -19q-97 0 -157 47zM184 426q-46 -46 -46 -117v-21h169q115 0 115 87q0 96 -127 96q-67 0 -111 -45z" />
<glyph unicode="&#xec;" horiz-adv-x="272" d="M99 582l-124 151h108l95 -142v-9h-79zM100 0v528l76 10v-538h-76z" />
<glyph unicode="&#xed;" horiz-adv-x="279" d="M303 733l-124 -151h-79v9l95 142h108zM100 0v528l76 10v-538h-76z" />
<glyph unicode="&#xee;" horiz-adv-x="277" d="M202 582l-67 117l-67 -117h-69v9l81 142h113l80 -142v-9h-71zM100 0v528l76 10v-538h-76z" />
<glyph unicode="&#xef;" horiz-adv-x="277" d="M56 604q-46 0 -46 50q0 49 46 49q45 0 45 -49q0 -50 -45 -50zM222 604q-46 0 -46 50q0 49 46 49t46 -49q0 -50 -46 -50zM100 0v528l76 10v-538h-76z" />
<glyph unicode="&#xf0;" horiz-adv-x="571" d="M283 -10q-220 0 -220 265q0 136 62 199q56 58 163 58q50 0 89 -12q-27 58 -76 126l-83 -51l-31 41l84 52l-26 35l-30 37l72 38q5 -7 12 -15q2 -4 6 -8l28 -36l70 49l31 -41l-71 -50q145 -206 145 -395q0 -292 -225 -292zM404 423q-48 15 -111 15q-70 0 -105 -38 q-40 -44 -40 -144q0 -192 136 -192q140 0 140 217q0 73 -20 142z" />
<glyph unicode="&#xf1;" horiz-adv-x="623" d="M490 705q-10 -75 -36 -104q-21 -23 -58 -23q-33 0 -60 18l-56 37q-18 11 -32 11q-34 0 -41 -62h-68q10 75 37 104q20 23 57 23q33 0 60 -18l56 -37q20 -11 32 -11q34 0 41 62h68zM528 0h-76v330q0 61 -41 100q-40 37 -97 37q-58 0 -98 -39q-41 -40 -41 -104l1 -324h-77 v522l76 15v-74q34 37 70 54q41 20 96 20q87 0 139 -67q48 -62 48 -157v-313z" />
<glyph unicode="&#xf2;" horiz-adv-x="593" d="M260 582l-124 151h108l95 -142v-9h-79zM303 -5q-110 0 -175 67q-65 66 -65 175v67q0 102 65 170q67 71 173 71q100 0 166 -71q64 -70 64 -171v-71q0 -104 -64 -170q-64 -67 -164 -67zM299 478q-72 0 -117 -50q-43 -47 -43 -115v-86q0 -72 43 -118q45 -47 117 -47 q73 0 116 47q40 45 40 118v86q0 69 -40 115q-43 50 -116 50z" />
<glyph unicode="&#xf3;" horiz-adv-x="590" d="M452 733l-124 -151h-79v9l95 142h108zM303 -5q-110 0 -175 67q-65 66 -65 175v67q0 102 65 170q67 71 173 71q100 0 166 -71q64 -70 64 -171v-71q0 -104 -64 -170q-64 -67 -164 -67zM299 478q-72 0 -117 -50q-43 -47 -43 -115v-86q0 -72 43 -118q45 -47 117 -47 q73 0 116 47q40 45 40 118v86q0 69 -40 115q-43 50 -116 50z" />
<glyph unicode="&#xf4;" horiz-adv-x="590" d="M374 582l-76 117l-75 -117h-77v9l90 142h127l90 -142v-9h-79zM303 -5q-110 0 -175 67q-65 66 -65 175v67q0 102 65 170q67 71 173 71q100 0 166 -71q64 -70 64 -171v-71q0 -104 -64 -170q-64 -67 -164 -67zM299 478q-72 0 -117 -50q-43 -47 -43 -115v-86q0 -72 43 -118 q45 -47 117 -47q73 0 116 47q40 45 40 118v86q0 69 -40 115q-43 50 -116 50z" />
<glyph unicode="&#xf5;" horiz-adv-x="609" d="M136 63q-65 66 -65 175v59q0 102 65 170q67 71 173 71q100 0 166 -71q64 -70 64 -171v-63q0 -104 -64 -170q-64 -67 -164 -67q-110 0 -175 67zM190 421q-43 -47 -43 -115v-78q0 -72 43 -118q45 -47 117 -47q73 0 116 47q40 45 40 118v78q0 69 -40 115q-43 50 -116 50 q-72 0 -117 -50zM481 725q-10 -75 -36 -104q-21 -23 -58 -23q-33 0 -60 18l-56 37q-18 11 -32 11q-34 0 -41 -62h-68q10 75 37 104q20 23 57 23q33 0 60 -18l56 -37q20 -11 32 -11q34 0 41 62h68z" />
<glyph unicode="&#xf6;" horiz-adv-x="590" d="M205 604q-49 0 -49 50q0 49 49 49q48 0 48 -49q0 -50 -48 -50zM394 604q-49 0 -49 50q0 49 49 49q48 0 48 -49q0 -50 -48 -50zM303 -5q-110 0 -175 67q-65 66 -65 175v67q0 102 65 170q67 71 173 71q100 0 166 -71q64 -70 64 -171v-71q0 -104 -64 -170q-64 -67 -164 -67z M299 478q-72 0 -117 -50q-43 -47 -43 -115v-86q0 -72 43 -118q45 -47 117 -47q73 0 116 47q40 45 40 118v86q0 69 -40 115q-43 50 -116 50z" />
<glyph unicode="&#xf7;" d="M388 247h-258v41h258v-41zM259 16q-60 0 -60 58t60 58q61 0 61 -58t-61 -58zM259 402q-60 0 -60 58q0 57 60 57q61 0 61 -57q0 -58 -61 -58z" />
<glyph unicode="&#xf8;" horiz-adv-x="585" d="M442 480q71 -69 71 -170v-95q0 -91 -60 -156q-64 -68 -159 -68q-75 0 -130 36l-63 -100h-42l76 123q-72 66 -72 169v93q0 93 63 159q65 69 166 69q66 0 121 -37l65 104h43zM139 219q0 -62 34 -107l204 332q-39 27 -87 27q-70 0 -113 -52q-38 -47 -38 -109v-91zM437 310 q0 62 -34 108l-203 -332q38 -28 90 -28q72 0 111 48q36 43 36 113v91z" />
<glyph unicode="&#xf9;" horiz-adv-x="619" d="M278 582l-124 151h108l95 -142v-9h-79zM99 537h76v-325q0 -144 137 -144q61 0 100 40q40 40 40 104v325h76v-537h-76v68q-66 -69 -153 -69q-200 0 -200 228v310z" />
<glyph unicode="&#xfa;" horiz-adv-x="623" d="M455 733l-124 -151h-79v9l95 142h108zM99 537h76v-325q0 -144 137 -144q61 0 100 40q40 40 40 104v325h76v-537h-76v68q-66 -69 -153 -69q-200 0 -200 228v310z" />
<glyph unicode="&#xfb;" horiz-adv-x="621" d="M388 582l-76 117l-75 -117h-77v9l90 142h127l90 -142v-9h-79zM99 537h76v-325q0 -144 137 -144q61 0 100 40q40 40 40 104v325h76v-537h-76v68q-66 -69 -153 -69q-200 0 -200 228v310z" />
<glyph unicode="&#xfc;" horiz-adv-x="624" d="M220 604q-49 0 -49 50q0 49 49 49q48 0 48 -49q0 -50 -48 -50zM409 604q-49 0 -49 50q0 49 49 49q48 0 48 -49q0 -50 -48 -50zM99 537h76v-325q0 -144 137 -144q61 0 100 40q40 40 40 104v325h76v-537h-76v68q-66 -69 -153 -69q-200 0 -200 228v310z" />
<glyph unicode="&#xfd;" d="M419 733l-124 -151h-79v9l95 142h108zM278 -98q-25 -73 -76 -96q-28 -12 -74 -12q-25 0 -54 3l7 72q29 -4 50 -4q27 0 42 7q30 14 49 77l9 40l-195 548h80q6 -16 31 -90l121 -357l134 447h82z" />
<glyph unicode="&#xfe;" horiz-adv-x="586" d="M175 474q48 67 138 67t149 -60q58 -60 58 -153v-151q0 -75 -33 -125q-41 -63 -124 -63q-24 0 -44 4q-14 3 -32 10q-2 0 -7 2l-20 7q-16 4 -31 4q-54 0 -54 -64v-151l-32 -9q-25 -7 -43 -13v979l75 19v-303zM427 97q17 31 17 82v149q0 144 -131 144q-135 0 -137 -135v-276 q17 25 60 25q15 0 31 -4q6 -1 14 -4q3 0 7 -2l7 -2q18 -6 31 -8q20 -4 40 -4q41 0 61 35z" />
<glyph unicode="&#xff;" d="M171 604q-49 0 -49 50q0 49 49 49q48 0 48 -49q0 -50 -48 -50zM360 604q-49 0 -49 50q0 49 49 49q48 0 48 -49q0 -50 -48 -50zM276 -98q-25 -73 -76 -96q-28 -12 -74 -12q-25 0 -54 3l7 72q29 -4 50 -4q27 0 42 7q30 14 49 77l9 40l-195 548h80q6 -16 31 -90l121 -357 l134 447h82z" />
<glyph unicode="&#x152;" horiz-adv-x="1025" d="M979 -1h-431v75q-73 -84 -185 -84h-29q-120 0 -194 91q-71 86 -71 219v151q0 130 71 216q74 90 194 90h14q3 1 6 1t6 -1h3q112 0 185 -81v72h425v-76h-348v-189q4 -48 12 -57q10 -13 55 -16h250v-74h-265q-45 -4 -49 -28q-3 -15 -3 -46v-188h344zM361 62q91 0 139 64 q46 60 46 166v159q-3 112 -47 171q-46 63 -138 63h-25q-93 0 -140 -64q-43 -58 -46 -170v-155q0 -123 51 -181q45 -50 135 -53h25z" />
<glyph unicode="&#x153;" horiz-adv-x="920" d="M561 83q42 -25 102 -25q49 0 102 24q20 9 41 22q13 8 30 20l-4 -80q-21 -18 -65 -34q-54 -19 -108 -19q-60 0 -108 21q-53 23 -82 68q-65 -90 -176 -90q-104 0 -169 69q-62 65 -62 160v92q0 94 63 159q65 69 166 69q118 0 182 -99q62 96 183 96h6q76 0 135 -51 q62 -55 62 -134q0 -71 -41 -103q-36 -27 -108 -27h-115q-81 0 -81 -66q0 -45 47 -72zM436 310q0 64 -35 109q-41 51 -112 51q-70 0 -113 -52q-38 -47 -38 -108v-91q0 -69 39 -113q41 -48 112 -48q72 0 111 47q36 43 36 114v91zM512 258q0 1 5 5l15 11q12 6 26 10q18 5 39 5 h100q41 0 61 11q26 15 26 53q0 45 -29 78q-35 39 -100 39q-59 0 -100 -42q-42 -43 -43 -104v-66z" />
<glyph unicode="&#x178;" horiz-adv-x="564" d="M189 816q-47 0 -47 46q0 44 48 44q47 0 47 -44q0 -46 -48 -46zM375 816q-48 0 -48 46q0 44 48 44q47 0 47 -44q0 -46 -47 -46zM555 749l-82 -160l-75 -154q-5 -11 -13 -26l-14 -27q-17 -32 -26 -53q-24 -54 -24 -109v-220h-78v221q0 54 -20 100l-179 366l-32 62h86 l136 -276q33 -69 48 -119q9 30 23 62l99 202q18 38 32 65l33 66h86z" />
<glyph unicode="&#x2c6;" horiz-adv-x="500" d="M324 597l-76 117l-75 -117h-77v9l90 142h127l90 -142v-9h-79z" />
<glyph unicode="&#x2dc;" horiz-adv-x="500" d="M425 725q-10 -75 -36 -104q-21 -23 -58 -23q-33 0 -60 18l-56 37q-18 11 -32 11q-34 0 -41 -62h-68q10 75 37 104q20 23 57 23q33 0 60 -18l56 -37q20 -11 32 -11q34 0 41 62h68z" />
<glyph unicode="&#x2000;" horiz-adv-x="477" />
<glyph unicode="&#x2001;" horiz-adv-x="955" />
<glyph unicode="&#x2002;" horiz-adv-x="477" />
<glyph unicode="&#x2003;" horiz-adv-x="955" />
<glyph unicode="&#x2004;" horiz-adv-x="318" />
<glyph unicode="&#x2005;" horiz-adv-x="238" />
<glyph unicode="&#x2006;" horiz-adv-x="159" />
<glyph unicode="&#x2007;" horiz-adv-x="159" />
<glyph unicode="&#x2008;" horiz-adv-x="119" />
<glyph unicode="&#x2009;" horiz-adv-x="191" />
<glyph unicode="&#x200a;" horiz-adv-x="53" />
<glyph unicode="&#x2010;" horiz-adv-x="250" d="M23 228v75h204v-75h-204z" />
<glyph unicode="&#x2011;" horiz-adv-x="250" d="M23 228v75h204v-75h-204z" />
<glyph unicode="&#x2013;" horiz-adv-x="500" d="M32 228v75h436v-75h-436z" />
<glyph unicode="&#x2014;" horiz-adv-x="1000" d="M32 228v75h936v-75h-936z" />
<glyph unicode="&#x2018;" horiz-adv-x="232" d="M61 705q26 40 89 76l44 -55q-49 -25 -64 -45q-12 -16 -12 -47v-9h15q40 0 40 -42q0 -53 -62 -53q-73 0 -73 86q0 53 23 89z" />
<glyph unicode="&#x2019;" horiz-adv-x="232" d="M171 604q-26 -40 -89 -76l-44 55q49 25 64 45q12 16 12 47v9h-15q-40 0 -40 42q0 53 62 53q73 0 73 -86q0 -53 -23 -89z" />
<glyph unicode="&#x201a;" horiz-adv-x="232" d="M171 -68q-26 -40 -89 -76l-44 55q49 25 64 45q12 16 12 47v9h-15q-40 0 -40 42q0 53 62 53q73 0 73 -86q0 -53 -23 -89z" />
<glyph unicode="&#x201c;" horiz-adv-x="406" d="M235 702q26 40 89 76l44 -55q-49 -25 -64 -45q-12 -16 -12 -47v-9h15q40 0 40 -42q0 -53 -62 -53q-73 0 -73 86q0 53 23 89zM61 702q26 40 89 76l44 -55q-49 -25 -64 -45q-12 -16 -12 -47v-9h15q40 0 40 -42q0 -53 -62 -53q-73 0 -73 86q0 53 23 89z" />
<glyph unicode="&#x201d;" horiz-adv-x="406" d="M345 603q-26 -40 -89 -76l-44 55q49 25 64 45q12 16 12 47v9h-15q-40 0 -40 42q0 53 62 53q73 0 73 -86q0 -53 -23 -89zM171 603q-26 -40 -89 -76l-44 55q49 25 64 45q12 16 12 47v9h-15q-40 0 -40 42q0 53 62 53q73 0 73 -86q0 -53 -23 -89z" />
<glyph unicode="&#x201e;" horiz-adv-x="406" d="M171 -68q-26 -40 -89 -76l-44 55q49 25 64 45q12 16 12 47v9h-15q-40 0 -40 42q0 53 62 53q73 0 73 -86q0 -53 -23 -89zM345 -68q-26 -40 -89 -76l-44 55q49 25 64 45q12 16 12 47v9h-15q-40 0 -40 42q0 53 62 53q73 0 73 -86q0 -53 -23 -89z" />
<glyph unicode="&#x2022;" horiz-adv-x="500" d="M123 138v253h254v-253h-254z" />
<glyph unicode="&#x2026;" horiz-adv-x="705" d="M352 -7q-61 0 -61 58t61 58t61 -58t-61 -58zM569 -7q-61 0 -61 58t61 58t61 -58t-61 -58zM136 -7q-61 0 -61 58t61 58t61 -58t-61 -58z" />
<glyph unicode="&#x202f;" horiz-adv-x="191" />
<glyph unicode="&#x2039;" horiz-adv-x="319" d="M192 41l-144 231l144 231h80l-126 -231l126 -231h-80z" />
<glyph unicode="&#x203a;" horiz-adv-x="319" d="M127 41h-79l125 231l-125 231h79l145 -231z" />
<glyph unicode="&#x205f;" horiz-adv-x="238" />
<glyph unicode="&#x20ac;" horiz-adv-x="586" d="M555 41q-27 -14 -50 -23q-34 -13 -58 -19q-31 -8 -58 -9h-19q-110 3 -180 86q-62 71 -70 187h-63v53h63v119h-63v53h63q6 113 70 189q68 86 180 89h8q94 0 177 -49l-28 -76q-72 48 -147 50h-7q-74 -1 -124 -61q-45 -55 -51 -142h287l-21 -53h-267v-119h288l-21 -53h-266 q7 -88 51 -140q49 -55 124 -58h14q28 2 69 18q36 14 71 34z" />
<glyph unicode="&#x2122;" horiz-adv-x="782" d="M226 731h77v-43h-88q-6 0 -9 -1q-7 -1 -10 -6q-2 -4 -2 -10v-313h-45v316q0 5 -2 9q-2 3 -7 4q-4 1 -11 1h-88v43h78q37 0 54 -10q16 10 53 10zM647 731h68v-373h-46v303l-97 -293h-44l-97 292v-302h-46v373h69l96 -296z" />
</font>
</defs>
</svg>
