<?xml version="1.0" standalone="no"?>
<!DOCTYPE svg PUBLIC "-//W3C//DTD SVG 1.1//EN" "http://www.w3.org/Graphics/SVG/1.1/DTD/svg11.dtd" >
<svg xmlns="http://www.w3.org/2000/svg">
<metadata>
This is a custom SVG webfont generated by Fontspring.
Foundry     : Morice Kastoun
</metadata>
<defs>
<font id="webfont" horiz-adv-x="500" >
<font-face units-per-em="1000" ascent="800" descent="-200" />
<missing-glyph horiz-adv-x="240" />
<glyph unicode=" "  horiz-adv-x="240" />
<glyph unicode="&#x09;" horiz-adv-x="240" />
<glyph unicode="&#xa0;" horiz-adv-x="240" />
<glyph unicode="!" horiz-adv-x="305" d="M200 242h-96q-2 26 -4 69l-8 162v278h121v-278zM152 -7q-76 0 -76 73q0 72 76 72q77 0 77 -72q0 -73 -77 -73z" />
<glyph unicode="&#x22;" horiz-adv-x="423" d="M168 477h-109l-10 276h129zM364 477h-109l-10 276h129z" />
<glyph unicode="#" horiz-adv-x="586" d="M533 424h-92l-31 -177h91l-21 -118h-92l-22 -129h-78l23 129h-106l-23 -129h-77l22 129h-95l21 118h96l31 177h-95l21 118h96l21 119h77l-21 -119h106l22 119h77l-22 -119h92zM258 424l-32 -177h107l31 177h-106z" />
<glyph unicode="$" horiz-adv-x="604" d="M359 410q113 -21 164 -90q36 -48 36 -113q0 -21 -4 -45q-15 -94 -76 -135q-55 -37 -158 -37q-43 0 -97 14l-31 -95h-50l36 107q-53 13 -92 13h-5l5 43q5 49 9 76q7 1 14 1q21 0 46 -5q22 -5 60 -16l59 176q-114 20 -164 82q-38 48 -38 120q0 30 6 63q16 81 82 120 q51 29 118 29q14 0 30 -1q42 -4 97 -16l33 99h49l-35 -107q22 -3 41 -3q15 0 28 2l-14 -121q-13 -2 -26 -2q-10 0 -21 1q-17 3 -45 11zM205 533q-2 -10 -2 -19q0 -74 109 -96l59 177l-30 7q-25 5 -45 5q-78 0 -91 -74zM424 175q2 12 2 24q0 75 -105 97l-60 -182l23 -6 q12 -3 23 -4q16 -2 29 -2q74 0 88 73z" />
<glyph unicode="%" horiz-adv-x="875" d="M344 0h-78l280 698h78zM354 466q0 -75 -36 -128q-42 -59 -112 -59h-15q-70 0 -111 60q-36 52 -36 127v30q0 76 36 128q41 59 111 59h16q70 0 111 -59q36 -53 36 -128v-30zM131 465q1 -42 14 -69q17 -34 49 -34h10q32 0 49 34q13 27 14 69v32q-1 42 -14 69q-17 33 -49 35 h-10q-32 -2 -49 -35q-13 -27 -14 -69v-32zM833 179q0 -75 -36 -128q-42 -59 -112 -59h-15q-70 0 -111 60q-36 52 -36 127v30q0 76 36 128q41 59 111 59h16q70 0 111 -59q36 -53 36 -128v-30zM610 178q1 -42 14 -69q17 -34 49 -34h10q32 0 49 34q13 27 14 69v32q-1 42 -14 69 q-17 33 -49 35h-10q-32 -2 -49 -35q-13 -27 -14 -69v-32z" />
<glyph unicode="&#x26;" horiz-adv-x="684" d="M105 60q-56 61 -56 139q0 28 8 59q27 113 134 168q-34 44 -50 77q-21 41 -21 80q0 78 57 127q54 47 131 47q76 0 129 -46q56 -48 56 -125q0 -61 -39 -112q-33 -42 -94 -78l41 -50l48 -59l14 36q9 22 17 37q20 41 51 66q42 34 93 34l22 -1q18 -3 41 -8v-112q-3 0 -9 2 l-22 4q-7 1 -12 1h-8q-25 0 -41 -11l-12 -13q-7 -11 -14 -27q-7 -15 -18 -47q-10 -32 -18 -49l125 -145l47 -54h-153q-15 17 -39 47l-39 47q-90 -104 -206 -104q-102 0 -163 70zM262 339q-60 -23 -80 -83q-7 -21 -7 -40q0 -38 28 -69q30 -34 71 -34q13 0 28 4q54 13 94 65 l-34 40q-9 9 -19 22l-20 23q-24 30 -35 42zM306 651q-26 0 -44 -21q-20 -21 -20 -48q0 -48 45 -98l33 19q16 11 26 22q25 25 25 61q0 26 -18 46q-18 19 -43 19h-4z" />
<glyph unicode="'" horiz-adv-x="227" d="M168 477h-109l-10 276h129z" />
<glyph unicode="(" horiz-adv-x="359" d="M211 -139q-71 95 -109 213q-37 114 -37 231q0 116 36 230q38 120 110 218h113q-69 -101 -105 -220q-33 -112 -33 -228q0 -114 33 -224q36 -117 105 -220h-113z" />
<glyph unicode=")" horiz-adv-x="359" d="M148 753q71 -95 109 -213q37 -114 37 -231q0 -116 -36 -230q-38 -120 -110 -218h-113q69 101 105 220q33 112 33 228q0 114 -33 224q-36 117 -105 220h113z" />
<glyph unicode="*" horiz-adv-x="440" d="M424 569l-132 -35l88 -103l-87 -62l-73 113l-73 -113l-88 62l89 103l-133 35l33 100l126 -50l-8 134h107l-7 -134l125 50z" />
<glyph unicode="+" horiz-adv-x="530" d="M319 212v-200h-108v200h-166v108h166v199h108v-199h165v-108h-165z" />
<glyph unicode="," horiz-adv-x="285" d="M86 -187l-65 73q61 39 78 61q15 18 15 48v18h-9q-44 0 -44 54q0 72 78 72q88 0 88 -105q0 -136 -141 -221z" />
<glyph unicode="-" horiz-adv-x="250" d="M23 215v101h204v-101h-204z" />
<glyph unicode="." horiz-adv-x="285" d="M142 -8q-77 0 -77 74q0 73 77 73q78 0 78 -73q0 -74 -78 -74z" />
<glyph unicode="/" horiz-adv-x="356" d="M87 -139h-106l312 872h107z" />
<glyph unicode="0" horiz-adv-x="635" d="M318 -9q-111 7 -177 101q-57 84 -57 198v53q0 115 59 201q67 98 175 98h19q110 0 176 -98q58 -85 58 -201v-53q0 -114 -57 -198q-66 -94 -177 -101h-19zM427 158q11 23 16 59q3 26 4 68v60q-2 80 -26 128q-30 59 -88 59h-3q-61 0 -93 -57q-27 -50 -29 -130v-60 q0 -73 25 -122q32 -63 96 -63q71 0 98 58z" />
<glyph unicode="1" horiz-adv-x="383" d="M299 607v-607h-122v506l-100 -97l-56 75l170 156z" />
<glyph unicode="2" horiz-adv-x="588" d="M507 107v-107h-412l-28 109q26 26 69 65l156 142q39 37 62 64q30 34 30 72q0 18 -7 37q-22 59 -86 60q-39 0 -74 -33q-14 -13 -32 -37q-7 -8 -17 -22l-19 -25l-87 83q19 26 37 46q23 26 48 44q62 45 134 45q106 0 164 -63q56 -61 56 -147q0 -44 -26 -91q-22 -39 -65 -84 q-18 -19 -41 -41l-86 -79q-23 -21 -39 -38h263z" />
<glyph unicode="3" horiz-adv-x="598" d="M506 198q22 -37 22 -81v-6q0 -100 -64 -161q-63 -61 -170 -61h-1q-63 0 -134 37q-28 15 -59 36l-52 37l77 94q3 -3 9 -7l29 -23q24 -19 43 -30q50 -32 87 -32q61 2 86 27q26 26 26 83v10q0 42 -36 69q-33 25 -79 26h-105v107h105q38 0 70 27q33 28 33 67v21 q-6 93 -102 93q-43 0 -86 -27q-17 -11 -36 -27q-15 -13 -33 -32l-77 95l33 28q24 19 47 33q69 41 152 41q94 0 159 -60q66 -62 66 -154v-9q0 -40 -25 -83q-18 -33 -52 -67l7 -5q5 -3 7 -5q36 -32 53 -61z" />
<glyph unicode="4" horiz-adv-x="636" d="M493 147h88v-105h-88v-147h-122v147h-271l-50 121q5 11 16 32l114 220l54 101q28 56 101 131h144q-28 -31 -66 -80q-43 -55 -61 -84l-87 -168q-45 -87 -83 -168h189v209h122v-209z" />
<glyph unicode="5" horiz-adv-x="664" d="M115 14l90 89q25 -44 54 -68q37 -31 82 -31q117 0 117 142q0 102 -63 140q-24 11 -48 11q-30 0 -61 -17q-44 -24 -74 -72l-40 16q-28 11 -57 19v402h439l-30 -110h-287v-207l23 24q15 13 31 23q43 24 104 24q86 0 137 -70q49 -68 49 -179v-13q0 -104 -70 -172 q-69 -67 -172 -67q-146 0 -224 116z" />
<glyph unicode="6" horiz-adv-x="668" d="M157 59q-70 72 -70 196v192q0 141 69 225q74 90 206 90q57 0 110 -18q41 -14 76 -37l-53 -110l-1 1q-27 24 -58 38q-37 17 -74 17q-91 0 -127 -69q-15 -28 -21 -69q-5 -33 -5 -78v-25q21 37 63 59q47 26 109 26q96 0 153 -77q52 -70 52 -172q0 -120 -69 -190 q-68 -68 -180 -68q-113 0 -180 69zM337 94q128 0 128 145q0 153 -123 153q-133 0 -133 -147q0 -151 128 -151z" />
<glyph unicode="7" horiz-adv-x="605" d="M528 643q2 -6 6 -19l7 -27q11 -38 18 -58l-300 -638h-135l302 639h-202q-24 0 -35 -19q-12 -22 -43 -86l-111 44l36 65q23 41 34 58q26 41 72 41h351z" />
<glyph unicode="8" horiz-adv-x="661" d="M553 317q27 -46 27 -94q0 -102 -75 -164q-71 -59 -179 -59t-179 59q-75 62 -75 164q0 49 28 96q24 40 63 72q-33 32 -52 68q-23 42 -23 85q0 96 70 157q65 57 161 57h7q102 -2 169 -59q69 -60 69 -155q0 -43 -23 -86q-19 -36 -52 -67q3 -3 5 -4q37 -33 59 -70zM327 647 q-116 0 -116 -103q0 -108 104 -108h20q106 0 106 105q0 106 -114 106zM457 227q0 47 -36 77q-35 29 -83 29h-25q-48 0 -83 -30q-35 -31 -36 -77q0 -113 132 -113q131 0 131 114z" />
<glyph unicode="9" horiz-adv-x="657" d="M502 602q70 -72 70 -196v-192q0 -141 -69 -225q-74 -90 -206 -90q-57 0 -109 18q-42 14 -77 37l53 110l1 -1q27 -24 58 -38q37 -17 74 -17q91 0 127 69q15 28 21 69q5 33 5 78v25q-21 -37 -63 -59q-47 -26 -109 -26q-96 0 -153 77q-52 70 -52 172q0 120 69 190 q68 68 180 68q113 0 180 -69zM322 567q-128 0 -128 -145q0 -153 123 -153q133 0 133 147q0 151 -128 151z" />
<glyph unicode=":" horiz-adv-x="285" d="M142 382q-77 0 -77 74q0 73 77 73q78 0 78 -73q0 -74 -78 -74zM142 -8q-77 0 -77 74q0 73 77 73q78 0 78 -73q0 -74 -78 -74z" />
<glyph unicode=";" horiz-adv-x="285" d="M86 -187l-65 73q61 39 78 61q15 18 15 48v18h-9q-44 0 -44 54q0 72 78 72q88 0 88 -105q0 -136 -141 -221zM142 382q-77 0 -77 74q0 73 77 73q78 0 78 -73q0 -74 -78 -74z" />
<glyph unicode="&#x3c;" horiz-adv-x="530" d="M317 0l-238 266l238 265h133v-12l-228 -251l228 -256v-12h-133z" />
<glyph unicode="=" horiz-adv-x="530" d="M63 92v105h404v-105h-404zM63 338v106h404v-106h-404z" />
<glyph unicode="&#x3e;" horiz-adv-x="530" d="M213 531l237 -265l-237 -266h-134v12l228 252l-228 255v12h134z" />
<glyph unicode="?" horiz-adv-x="462" d="M394 494q-19 -28 -59 -59l-61 -46q-27 -26 -29 -53l-6 -94h-102l-2 123q0 38 25 70q18 24 55 51l30 21q17 12 26 20q27 22 29 41q1 2 1 5v5q0 66 -72 66q-61 0 -126 -64l-44 107q77 70 178 70q83 0 133 -47q51 -47 51 -124q0 -51 -27 -92zM193 -7q-76 0 -76 72t77 72 t77 -72t-78 -72z" />
<glyph unicode="@" horiz-adv-x="936" d="M861 251q-21 -55 -58 -96q-70 -74 -162 -74q-85 0 -113 54h-5q-80 -54 -130 -54q-126 0 -126 147q0 124 58 204q56 78 140 78q63 0 110 -31l5 24h104l-53 -299q-2 -12 -2 -19q0 -25 31 -25q51 0 88 54q45 63 45 176q0 270 -292 270q-162 0 -257 -107q-99 -111 -99 -307 q0 -310 280 -310q80 0 164 31l9 -85q-89 -29 -180 -29q-367 0 -367 393q0 235 128 369q122 128 322 128q177 0 277 -88q106 -92 106 -265q0 -77 -23 -139zM564 413q-39 21 -74 21q-46 0 -78 -57q-34 -58 -34 -142q0 -71 58 -71q33 0 89 32z" />
<glyph unicode="A" horiz-adv-x="656" d="M395 751l125 -373l127 -378h-132l-38 110q-4 10 -9 27l-9 26q-10 31 -17 50h-231l-69 -213h-133l254 751h132zM414 313l-82 271l-3 36l-1 -36l-85 -271h171z" />
<glyph unicode="B" horiz-adv-x="664" d="M88 0v751h281q94 -1 155 -54q65 -57 65 -150v-4q0 -47 -23 -91q-23 -41 -60 -65q46 -23 78 -71q34 -51 34 -105q0 -92 -60 -150q-61 -61 -162 -61h-308zM374 111q111 0 111 111q0 42 -32 73q-33 31 -78 31h-161v-215h160zM214 430h154q93 0 93 106q0 103 -98 103h-149 v-209z" />
<glyph unicode="C" horiz-adv-x="603" d="M333 -10q-123 0 -201 99q-74 93 -74 225v118q0 130 73 223q79 99 202 100h14q124 -3 222 -74l-68 -108q-33 28 -73 45q-45 19 -85 19h-7q-65 0 -108 -62q-41 -59 -41 -143v-118q0 -93 35 -146q38 -60 114 -60h13q40 0 92 26q19 10 41 23q8 6 18 12l15 10l57 -109l-51 -28 q-29 -15 -54 -26q-64 -26 -115 -26h-19z" />
<glyph unicode="D" horiz-adv-x="714" d="M96 751h281q128 -3 205 -98q73 -91 73 -230v-98q0 -142 -74 -231q-76 -93 -204 -94h-281v751zM222 118h150q152 0 152 207v98q0 100 -35 153q-38 58 -117 58h-150v-516z" />
<glyph unicode="E" horiz-adv-x="611" d="M96 0v751h457v-116h-331v-197h294v-111h-294v-210h321l14 -117h-461z" />
<glyph unicode="F" horiz-adv-x="576" d="M96 751h442v-117h-316v-196h283v-111h-283v-327h-126v751z" />
<glyph unicode="G" horiz-adv-x="711" d="M147 87q-81 91 -81 229v141q0 147 93 237q87 85 219 85q134 0 232 -82l-77 -103q-33 32 -71 50q-45 21 -91 21q-83 0 -130 -59q-46 -59 -46 -159v-132q0 -99 47 -154q44 -52 116 -52q70 0 116 47q47 48 47 127v40h-158l-20 110h302v-149q0 -133 -88 -215 q-83 -76 -200 -76q-127 0 -210 94z" />
<glyph unicode="H" horiz-adv-x="743" d="M96 0v751h126v-311h306v311h126v-751h-126v324h-306v-324h-126z" />
<glyph unicode="I" horiz-adv-x="319" d="M97 0v751h127v-751h-127z" />
<glyph unicode="J" horiz-adv-x="330" d="M33 -56q16 -5 28 -5q47 0 47 76v736h123v-738q0 -95 -52 -146q-42 -42 -107 -42q-21 0 -46 5z" />
<glyph unicode="K" horiz-adv-x="694" d="M656 1q-30 -12 -59 -12q-19 0 -38 5q-51 14 -83 64l-84 129q-44 69 -76 126l-49 -62l-45 -59v-192h-126v751h126v-390l293 390h150l-195 -253l-67 -88l91 -146l85 -130q14 -21 37 -24q5 -1 10 -1q14 0 27 6z" />
<glyph unicode="L" horiz-adv-x="558" d="M95 0v751h126v-638h316l-21 -113h-421z" />
<glyph unicode="M" horiz-adv-x="879" d="M791 751l1 -751h-126l-1 568l-19 -82l-148 -461h-119l-148 461l-19 84v-570h-126l1 751h180l172 -555l172 555h180z" />
<glyph unicode="N" horiz-adv-x="738" d="M222 0h-126v751h133l282 -497l8 -33v530h126v-751h-131l-283 504l-9 35v-539z" />
<glyph unicode="O" horiz-adv-x="738" d="M366 -9q-128 0 -217 92q-90 93 -90 224v133q0 133 90 224q90 92 220 92t220 -92q90 -91 90 -224v-133q0 -129 -92 -223q-91 -93 -215 -93h-6zM245 586q-52 -55 -52 -141v-142q0 -83 50 -138t125 -55q74 0 124 55q50 56 50 138v148q0 75 -47 129q-51 58 -127 58 q-73 0 -123 -52z" />
<glyph unicode="P" horiz-adv-x="648" d="M96 0v751h283q97 0 164 -70q66 -71 66 -170q0 -104 -68 -176q-69 -73 -171 -73h-147v-262h-127zM365 378q51 1 83 41q29 37 31 92q-2 50 -29 85q-29 39 -76 39h-151v-257h142z" />
<glyph unicode="Q" horiz-adv-x="716" d="M530 -44q18 -10 36 -13q5 -1 9 -1q22 0 44 12v-108q-26 -9 -51 -9q-70 0 -136 69q-11 11 -23 25l-16 20q-17 18 -33 27q-12 7 -35 9q-122 9 -197 115q-65 94 -65 221v94q0 154 78 245q81 94 227 94q137 0 216 -94q77 -92 77 -245v-76q0 -120 -43 -206q-47 -96 -140 -132z M193 331q0 -104 41 -165q46 -67 131 -67q83 0 127 73q39 64 39 169v65q0 103 -37 167q-44 74 -129 74q-92 0 -136 -69q-36 -56 -36 -152v-95z" />
<glyph unicode="R" horiz-adv-x="688" d="M640 1q-24 -10 -50 -10q-22 0 -45 7q-49 15 -79 57q-16 22 -34 56l-49 96q-11 21 -20 32q-23 31 -61 31h-80v-270h-126v751h294q101 0 168 -69q66 -69 66 -171q0 -162 -155 -227q14 -17 28 -39q11 -16 24 -41q3 -4 6 -10l17 -30q13 -22 23 -37q8 -12 26 -18q11 -3 22 -3 t22 3zM222 383h159q49 1 82 40q32 38 32 88t-28 86q-31 38 -80 38h-165v-252z" />
<glyph unicode="S" horiz-adv-x="635" d="M177 21q-64 25 -111 60l44 130q33 -36 96 -68q66 -33 114 -37h15q41 0 70 14q40 20 48 64q2 11 2 21q0 65 -82 96q-20 8 -47 16q-11 2 -25 6l-12 3q-5 1 -6 2l-6 2q-31 7 -49 13q-26 9 -45 18q-67 33 -98 105q-16 39 -16 78q0 37 14 74q29 77 109 112q56 25 127 25 q20 0 41 -2q54 -5 113 -28q52 -21 100 -51l-53 -124q-84 80 -175 90q-15 2 -29 2q-74 0 -99 -56q-8 -18 -8 -37t8 -38q17 -39 60 -56q19 -8 51 -17l43 -12q8 -3 15 -4q34 -10 56 -18q29 -11 47 -22q108 -62 108 -170q0 -27 -7 -56q-19 -87 -96 -130q-65 -36 -162 -36h-15 q-64 0 -140 31z" />
<glyph unicode="T" horiz-adv-x="571" d="M218 0v642h-186l-1 109h510v-109h-197v-642h-126z" />
<glyph unicode="U" horiz-adv-x="739" d="M663 750v-444q0 -141 -80 -228q-80 -88 -207 -88h-6q-132 0 -209 87q-78 87 -78 232v441h128v-452q0 -193 161 -193q163 0 163 193v452h128z" />
<glyph unicode="V" horiz-adv-x="633" d="M617 752l-206 -752h-171l-224 752h139l169 -621l156 621h137z" />
<glyph unicode="W" horiz-adv-x="1001" d="M967 751l-180 -751h-159l-111 433l-12 67l-11 -67l-102 -433h-159l-195 751h137l129 -532l9 -58l11 55l116 489h127l127 -485l9 -59l9 60l119 530h136z" />
<glyph unicode="X" horiz-adv-x="667" d="M588 120q9 -6 22 -6h4q5 0 13 2l12 2l1 -120l-35 -6q-7 -1 -14 -1q-14 0 -25 3q-33 6 -62 33q-21 19 -46 56l-73 123l-48 74q-23 -35 -48 -78l-82 -144l-35 -58h-150l245 387l-244 364h152q14 -20 33 -52l80 -131l46 -72q21 32 42 68q15 24 37 63l35 62l38 62h150 l-232 -362l147 -226q25 -36 37 -43z" />
<glyph unicode="Y" horiz-adv-x="585" d="M313 472q7 16 17 37l110 242h145q-107 -200 -208 -418q-24 -51 -24 -98v-235h-126v235q0 47 -20 90l-44 91l-43 87q0 1 -1 2q0 2 -1 2l-118 244h141l73 -157l54 -122q9 -21 11 -30q5 -15 10 -51q7 38 11 51q2 7 6 14l3 7q1 4 2 4z" />
<glyph unicode="Z" horiz-adv-x="594" d="M180 117h368l-1 -117h-472l-37 138l184 255l98 134l87 115h-344v109h463l31 -111z" />
<glyph unicode="[" horiz-adv-x="359" d="M94 -139v872h240l-9 -98h-104v-676h104l9 -98h-240z" />
<glyph unicode="\" horiz-adv-x="381" d="M293 -139l-312 872h106l313 -872h-107z" />
<glyph unicode="]" horiz-adv-x="359" d="M265 733v-872h-240l9 98h104v676h-104l-9 98h240z" />
<glyph unicode="^" horiz-adv-x="530" d="M346 487l-83 224l-81 -224h-105v11l102 255h171l103 -255v-11h-107z" />
<glyph unicode="_" d="M32 -163v91h436v-91h-436z" />
<glyph unicode="`" d="M256 582l-120 151h146l82 -140v-11h-108z" />
<glyph unicode="a" horiz-adv-x="578" d="M441 481q66 -61 66 -156v-325h-114l-2 41q-52 -47 -137 -47h-21q-76 0 -128 44q-58 49 -58 129q0 84 58 134q52 45 128 45h25q77 0 127 -47v16q0 46 -7 66q-24 56 -93 56q-90 0 -174 -52l-31 118l37 14q22 7 43 12q52 13 114 13q101 0 167 -61zM303 100q32 0 56 19 q27 21 27 54q0 35 -26 55q-24 18 -57 18h-43q-87 0 -87 -73t87 -73h43z" />
<glyph unicode="b" horiz-adv-x="617" d="M498 487q58 -54 58 -135v-169q0 -81 -58 -135q-57 -52 -137 -52q-95 0 -153 66l-4 -62h-118v736l122 23v-286q57 65 153 65q81 0 137 -51zM430 321q0 49 -34 81q-32 30 -77 30t-77 -30q-33 -32 -33 -81v-110q0 -52 33 -82q31 -29 77 -29t77 29q34 30 34 82v110z" />
<glyph unicode="c" horiz-adv-x="512" d="M274 -5q-94 0 -160 66q-67 66 -67 160v94q0 93 67 159q66 66 160 66h8q109 0 181 -49l-35 -109q-33 24 -63 37q-40 16 -82 16q-49 0 -80 -35t-31 -87v-91q0 -51 33 -85q32 -33 78 -35h7q45 0 88 24q31 16 55 41l35 -114q-35 -28 -90 -44q-50 -14 -96 -14h-8z" />
<glyph unicode="d" horiz-adv-x="607" d="M409 476v262l122 21v-759h-117l-4 61q-59 -66 -153 -66q-81 0 -137 55q-59 57 -59 143v151q0 86 59 142q56 54 137 54q95 0 152 -64zM187 210q0 -51 34 -82q31 -28 78 -28q45 0 76 28q33 31 33 82v114q0 49 -33 81q-32 30 -76 30q-46 0 -78 -30q-34 -32 -34 -81v-114z " />
<glyph unicode="e" horiz-adv-x="560" d="M487 51q-1 -1 -3 -2l-25 -15q-20 -12 -41 -19q-27 -10 -59 -16q-37 -6 -81 -6q-97 0 -162 66q-66 68 -66 177v58q0 107 72 177q70 69 179 69q91 0 150 -50q60 -50 60 -130v-3q0 -138 -183 -138h-152v-9q0 -49 36 -83q34 -32 82 -32q58 0 111 23q47 21 86 59zM315 312 q74 0 74 59q0 63 -88 63q-64 0 -97 -39q-28 -32 -28 -83h139z" />
<glyph unicode="f" horiz-adv-x="416" d="M216 0h-121v444h-63v98h63v30q6 182 192 184q62 0 100 -17v-105q-26 12 -48 17q-20 5 -39 5q-8 0 -16 -1q-32 -3 -48 -20q-20 -21 -20 -64v-29h169v-98h-169v-444z" />
<glyph unicode="g" horiz-adv-x="606" d="M531 5q0 -100 -67 -161q-60 -56 -143 -56h-42q-77 0 -157 40l14 130q71 -65 166 -65q107 0 107 97v71q-57 -64 -152 -64q-81 0 -137 54q-59 56 -59 142v151q0 86 59 143q56 55 137 55q93 0 152 -66v45l122 19v-535zM409 329q0 51 -33 82q-31 28 -76 28q-47 0 -79 -28 q-34 -31 -34 -82v-117q0 -49 34 -81q33 -30 79 -30q44 0 76 30q33 32 33 81v117z" />
<glyph unicode="h" horiz-adv-x="636" d="M430 0v323q0 56 -34 89q-32 31 -79 31q-45 0 -76 -31q-33 -33 -33 -89v-323h-122v740l122 17v-280q59 66 152 66q81 0 137 -56q59 -58 59 -149v-338h-126z" />
<glyph unicode="i" horiz-adv-x="290" d="M205 0h-122v530l122 17v-547zM141 617q-69 0 -69 70q0 69 69 69h5q70 -2 70 -69q0 -68 -67 -70h-8z" />
<glyph unicode="j" horiz-adv-x="289" d="M-15 -86q22 -8 39 -8q64 0 64 109v515l122 17v-525q0 -107 -52 -166q-53 -60 -124 -60q-24 0 -49 6v112zM146 617q-69 0 -69 70q0 69 69 69h4q71 -2 71 -69q0 -68 -67 -70h-8z" />
<glyph unicode="k" horiz-adv-x="586" d="M564 5q-27 -9 -51 -9q-70 0 -115 63l-114 167l-77 -83v-143h-122v743l122 17v-467l220 243h142l-142 -161l-56 -61q32 -48 58 -83l62 -86q23 -32 54 -32q9 0 19 3v-111z" />
<glyph unicode="l" horiz-adv-x="293" d="M207 0h-121v740l121 17v-757z" />
<glyph unicode="m" horiz-adv-x="961" d="M825 488q57 -57 57 -143v-345h-126v323q0 120 -109 120q-44 0 -74 -31q-31 -34 -31 -89v-323h-126v323q0 120 -109 120q-45 0 -74 -31q-31 -33 -31 -89v-323h-122v521l122 17v-61q59 66 148 66q110 0 166 -96q68 95 174 96q80 0 135 -55z" />
<glyph unicode="n" horiz-adv-x="635" d="M430 0v323q0 56 -34 89q-32 31 -79 31q-45 0 -76 -31q-33 -33 -33 -89v-323h-122v521l122 17v-61q59 66 152 66q81 0 137 -56q59 -58 59 -149v-338h-126z" />
<glyph unicode="o" horiz-adv-x="595" d="M543 230q0 -97 -69 -165q-71 -70 -179 -70q-105 0 -176 71q-68 68 -68 166v73q0 98 68 166q70 70 175 70q109 0 180 -70q67 -67 69 -166v-75zM419 291q0 66 -35 107q-34 41 -89 41t-88 -41q-34 -42 -34 -108v-52q0 -141 124 -141q53 0 88 40q34 40 34 101v53z" />
<glyph unicode="p" horiz-adv-x="618" d="M194 63v-244l-122 -19v724l122 17v-61q59 66 152 66q81 0 137 -55q59 -57 59 -143v-153q0 -86 -59 -142q-56 -54 -137 -54q-95 0 -152 64zM416 333q0 51 -34 82q-32 28 -79 28q-45 0 -76 -28q-33 -31 -33 -82v-119q0 -49 33 -81q32 -30 76 -30q46 0 79 30q34 32 34 81 v119z" />
<glyph unicode="q" horiz-adv-x="597" d="M111 48q-59 56 -59 142v151q0 86 59 143q56 55 137 55q93 0 152 -66v61h122v-717l-122 -20v261q-57 -64 -152 -64q-81 0 -137 54zM178 210q0 -49 34 -81q33 -30 79 -30q44 0 76 30q33 32 33 81v117q0 51 -33 82q-31 28 -76 28q-47 0 -79 -28q-34 -31 -34 -82v-117z" />
<glyph unicode="r" horiz-adv-x="410" d="M78 530l122 10v-92q23 42 53 65q36 28 84 28q27 0 46 -10l-7 -116q-16 9 -45 9h-6q-125 -3 -125 -133v-291h-122v530z" />
<glyph unicode="s" horiz-adv-x="519" d="M217 1q-31 5 -65 15q-27 8 -53 18q-10 3 -19 7l-13 6q7 25 18 56l2 7q1 1 2 6l5 12q5 14 8 25q85 -54 180 -59h7q62 0 69 49q1 4 1 8q0 43 -59 61q-15 4 -37 8l-38 7q-47 9 -73 20q-48 20 -72 66q-18 32 -18 71q0 22 6 46q13 54 66 83q48 27 116 27q69 0 129 -18 q25 -8 49 -18q18 -8 41 -20l-36 -103q-85 53 -147 60q-15 1 -27 1q-65 0 -77 -38q-4 -13 -4 -23q0 -42 60 -53q37 -7 73 -16q41 -10 67 -21q103 -41 103 -130q0 -18 -4 -37q-25 -130 -188 -130q-33 0 -72 7z" />
<glyph unicode="t" horiz-adv-x="449" d="M130 61q-37 55 -37 141v242h-72v98h72v154l121 23v-177h186v-98h-186v-243q0 -95 73 -95q52 0 94 38v-114q-22 -14 -50 -23q-36 -11 -75 -11q-83 0 -126 65z" />
<glyph unicode="u" horiz-adv-x="630" d="M207 538v-323q0 -56 34 -89q32 -31 79 -31q45 0 76 31q33 33 33 89v323h122v-538h-116l-6 61q-59 -66 -152 -66q-81 0 -137 56q-59 58 -59 149v338h126z" />
<glyph unicode="v" d="M317 0h-133l-168 541h128q8 -26 22 -76l78 -312q4 -17 7 -34q4 26 13 58l46 188l26 101q14 50 22 75h128z" />
<glyph unicode="w" horiz-adv-x="812" d="M634 0h-138l-81 323l-8 47l-7 -47l-81 -323h-139l-143 539h128l79 -358q1 -2 2 -17l3 -26l6 43l31 120l62 238h118l94 -357l5 -32q1 -7 1 -12l5 43q8 34 21 98q12 51 26 118l31 142h128z" />
<glyph unicode="x" horiz-adv-x="516" d="M496 0h-140l-102 179l-100 -179h-139l64 101q1 1 2 4q1 0 1 2q1 1 2 1q2 5 4 8l100 155l-51 77l-101 157q-11 18 -22 34h140l100 -181l51 91l50 90h141l-117 -190l-51 -78l96 -154l27 -46z" />
<glyph unicode="y" horiz-adv-x="507" d="M55 -180l11 111q27 -20 60 -20q8 0 16 1l5 1q3 0 5 1q6 0 10 2q9 3 17 9q16 15 27 61l-197 553h132l120 -387l29 101l58 220q14 49 20 66h131l-200 -619q-38 -118 -148 -118q-8 0 -16 1q-41 2 -80 17z" />
<glyph unicode="z" horiz-adv-x="535" d="M48 110l52 63l225 263h-249l-10 103h406v-116l-268 -319h271v-104h-392z" />
<glyph unicode="{" horiz-adv-x="359" d="M316 -139h-75q-93 0 -137 35q-41 31 -41 90q0 32 18 66q13 23 40 57l21 25q12 14 19 24q18 27 18 46q0 44 -68 44h-57v98h57q68 0 68 44q0 19 -18 46q-7 10 -19 24l-21 25q-27 33 -40 57q-18 33 -18 65q0 58 40 90q44 36 138 36h75v-98h-79q-54 0 -54 -41q0 -16 18 -39 l19 -23l16 -17q3 -4 6 -6q27 -31 40 -53q18 -32 18 -60q0 -82 -111 -95v-8q111 -12 111 -95q0 -27 -18 -58q-13 -22 -40 -53l-17 -18l-24 -29q-18 -24 -18 -40q0 -41 54 -41h79v-98z" />
<glyph unicode="|" horiz-adv-x="277" d="M89 -220v988h99v-988h-99z" />
<glyph unicode="}" horiz-adv-x="359" d="M43 733h75q93 0 137 -35q41 -31 41 -90q0 -32 -18 -66q-13 -23 -40 -56l-21 -26q-12 -14 -19 -24q-18 -27 -18 -46q0 -44 68 -44h57v-98h-57q-68 0 -68 -44q0 -19 18 -46q7 -10 19 -24l21 -25q27 -33 40 -57q18 -33 18 -65q0 -58 -39 -90q-45 -36 -139 -36h-75v98h79 q54 0 54 41q0 16 -18 39l-40 47q-28 30 -41 52q-18 32 -18 60q0 82 111 95v8q-111 12 -111 95q0 27 18 58q13 22 41 53l40 47q18 24 18 40q0 41 -54 41h-79v98z" />
<glyph unicode="~" horiz-adv-x="530" d="M469 247q-54 -49 -109 -49q-22 0 -48 8q-16 6 -46 19l-46 19q-25 8 -45 8q-57 0 -115 -50v109q47 44 115 44q22 0 48 -8q16 -5 46 -18l45 -19q25 -8 46 -8q45 0 109 55v-110z" />
<glyph unicode="&#xa1;" horiz-adv-x="304" d="M104 308h96q2 -26 4 -69l8 -162v-278h-121v278zM152 557q76 0 76 -73q0 -72 -76 -72q-77 0 -77 72q0 73 77 73z" />
<glyph unicode="&#xa2;" horiz-adv-x="588" d="M471 197l38 -115q-83 -61 -189 -61h-8q-34 0 -64 9l-30 -86h-46l36 102q-123 64 -123 201v94q0 93 67 159q66 66 160 66h8q35 0 66 -6l29 83h46l-33 -93q43 -13 73 -33l-35 -109q-38 25 -73 39l-110 -315q15 -5 29 -5h8q22 0 50 11q23 9 49 24q19 11 37 24zM210 238 q0 -48 35 -83l106 303q-13 3 -28 3h-7q-45 0 -76 -34q-30 -33 -30 -78v-111z" />
<glyph unicode="&#xa3;" horiz-adv-x="586" d="M531 110v-110h-464v110q31 0 64 3l24 4q15 3 26 7q29 13 37 42q3 13 3 25q0 19 -8 38q-5 12 -15 27l-17 26h-110v91h57q-46 81 -46 162q0 104 78 166q71 57 174 57q136 0 207 -97l-89 -78q-40 64 -119 64q-125 0 -125 -112q0 -31 23 -83q18 -40 42 -79h226l-39 -91h-135 q21 -47 21 -86q0 -22 -4 -40q-6 -24 -19 -46h208z" />
<glyph unicode="&#xa4;" horiz-adv-x="584" d="M464 30l-51 55q-55 -35 -121 -35t-121 35l-51 -55l-63 61l52 54q-40 61 -40 135q0 76 40 137l-52 54l63 61l51 -55q55 35 121 35t121 -35l51 55l63 -61l-52 -54q40 -61 40 -136t-40 -136l52 -54zM291 428q-130 0 -130 -147t130 -147q132 0 132 147t-132 147z" />
<glyph unicode="&#xa5;" horiz-adv-x="607" d="M596 751l-95 -184l-91 -188h104v-56h-130q-14 -33 -18 -70h148v-56h-150v-197h-126v197h-145v56h144q-3 36 -18 70h-126v56h99l-181 372h141l73 -157l54 -122q9 -21 11 -30q5 -15 10 -51q7 38 11 51q2 7 6 14l3 7q1 4 2 4l129 284h145z" />
<glyph unicode="&#xa6;" horiz-adv-x="277" d="M89 0v301h99v-301h-99zM89 432v301h99v-301h-99z" />
<glyph unicode="&#xa7;" horiz-adv-x="574" d="M458 210q44 -41 44 -114q0 -10 -1 -21q-6 -73 -59 -110q-50 -34 -135 -34h-1q-25 0 -51 5l-44 11q-27 6 -47 9q-17 2 -36 2q-13 0 -26 -1l13 111h9q22 0 47 -4l96 -24q22 -4 40 -4h7q68 4 68 56q0 64 -122 74q-81 6 -128 46q-48 42 -48 113q0 13 1 26q8 59 42 93 q-44 38 -44 104q0 12 2 26q16 135 156 143q10 1 19 1q25 0 50 -4q13 -2 29 -6l21 -4q5 -1 7 -2q34 -8 55 -9q10 -1 20 -1q20 0 40 4l-9 -59l-9 -45q-14 -4 -32 -4q-26 0 -60 8l-44 10q-24 7 -34 8q-15 2 -27 2q-59 0 -66 -46q-1 -8 -1 -15q0 -36 32 -50q14 -6 43 -10 q8 -2 27 -4l29 -4q171 -25 171 -162q0 -9 -1 -18q-4 -61 -43 -97zM201 347v-9q0 -60 88 -69q12 -1 23 -1q67 0 70 56v5q0 22 -17 38q-22 23 -68 27q-10 1 -20 1q-71 0 -76 -48z" />
<glyph unicode="&#xa8;" d="M151 613q-61 0 -61 62t61 62t61 -62t-61 -62zM349 613q-61 0 -61 62t62 62q60 0 60 -62t-61 -62z" />
<glyph unicode="&#xa9;" horiz-adv-x="753" d="M624 108q-87 -97 -247 -97t-247 97q-85 94 -85 259q0 167 87 261q88 96 245 96t244 -94t87 -263q0 -165 -84 -259zM378 667q-272 0 -272 -300q0 -142 66 -218q69 -81 206 -81q271 0 271 299q0 300 -271 300zM378 181q-65 0 -110 45q-46 46 -46 110v64q0 64 46 110 q45 45 110 45h6q75 0 124 -34l-24 -75q-23 16 -44 25q-29 12 -54 12h-5q-73 0 -73 -77v-76q0 -31 21 -54t49 -23h6q27 0 68 24q7 4 14 9l21 15l26 -78q-54 -42 -129 -42h-6z" />
<glyph unicode="&#xaa;" horiz-adv-x="420" d="M317 700q46 -42 46 -109v-227h-80l-1 29q-35 -33 -96 -33h-15q-52 0 -89 31q-41 34 -41 90q0 59 41 94q36 31 89 31h18q53 0 89 -33v11q0 32 -5 46q-18 40 -65 40q-61 0 -122 -37l-22 83l26 9q16 6 30 9q37 9 80 9q71 0 117 -43zM220 434q58 0 58 51t-58 51h-30 q-61 0 -61 -51t61 -51h30z" />
<glyph unicode="&#xab;" horiz-adv-x="555" d="M178 41l-142 231l142 231h109l-122 -231l122 -231h-109zM411 41l-143 231l143 231h107l-120 -231l120 -231h-107z" />
<glyph unicode="&#xac;" horiz-adv-x="586" d="M413 113v170h-355v108h469v-278h-114z" />
<glyph unicode="&#xad;" horiz-adv-x="250" d="M23 215v101h204v-101h-204z" />
<glyph unicode="&#xae;" horiz-adv-x="455" d="M360 417q-49 -53 -132 -53q-84 0 -133 53q-48 52 -48 136q0 85 49 137q49 53 132 53q81 0 131 -51q49 -52 49 -139q0 -84 -48 -136zM228 710q-143 0 -143 -157q0 -71 35 -112q38 -44 109 -44q141 0 141 156q0 157 -142 157zM296 498l1 -35l-3 -2q-4 -1 -12 -1q-9 0 -17 3 q-9 3 -17 13l-9 14l-15 30q-5 5 -11 5h-12v-63h-39v185h71q27 0 43 -18q17 -17 17 -43q0 -36 -34 -55l20 -33q0 -3 7 -3q3 0 4 1zM201 561h30q9 0 16 7q7 9 7 18q0 11 -6 18q-7 7 -15 7h-32v-50z" />
<glyph unicode="&#xaf;" d="M118 629v104h265v-104h-265z" />
<glyph unicode="&#xb0;" horiz-adv-x="401" d="M200 452q-161 0 -161 150q0 151 160 151q163 0 163 -150q0 -151 -162 -151zM200 677q-69 0 -69 -74q0 -76 69 -76q70 0 70 76q0 74 -70 74z" />
<glyph unicode="&#xb1;" horiz-adv-x="530" d="M467 0h-404v98h404v-98zM213 280h-150v99h150v152h104v-152h150v-99h-150v-151h-104v151z" />
<glyph unicode="&#xb2;" horiz-adv-x="414" d="M344 592v-72h-269l-19 73l45 43l100 95q25 25 41 43q21 24 21 51q0 11 -4 22q-14 39 -56 40q-26 0 -48 -22q-8 -8 -20 -24q-3 -3 -6 -8l-18 -24l-58 56q13 18 24 31q16 17 31 29q40 30 88 30q67 0 107 -42q37 -42 37 -99q0 -29 -16 -61q-14 -26 -42 -56q-18 -20 -53 -53 l-54 -52h169z" />
<glyph unicode="&#xb3;" horiz-adv-x="414" d="M293 706q48 -39 48 -90v-4q0 -65 -41 -104q-43 -39 -106 -39q-40 0 -83 24q-16 9 -36 23l-32 24l49 61q6 -4 13 -10l12 -10q17 -13 26 -19q29 -21 51 -21q32 1 50 18q15 17 15 53v7q0 59 -66 61h-61v69h63q58 0 58 61v15q-4 59 -60 59q-26 0 -51 -17q-15 -10 -42 -38 l-50 61l21 19q15 12 31 19q45 27 91 27q60 0 100 -38q41 -39 41 -99v-6q0 -26 -16 -54q-13 -21 -36 -45q2 -2 6 -4z" />
<glyph unicode="&#xb4;" d="M243 602h-107v11l81 140h147z" />
<glyph unicode="&#xb5;" horiz-adv-x="619" d="M414 539h123v-533l-91 -12q-19 23 -39 31q-15 7 -37 7q-17 0 -31 -5q-8 -3 -24 -11q-14 -9 -24 -12q-17 -5 -37 -5q-26 0 -47 15v-232h-122v757h122v-333q0 -57 18 -78q13 -14 41 -14q13 0 24 3l39 15q12 3 26 3q18 0 36 -8q7 -3 13 -8q3 -1 6 -3l4 -3v426z" />
<glyph unicode="&#xb6;" horiz-adv-x="560" d="M395 -72v645q-28 7 -57 7v-652h-90v292h-29q-96 0 -139 47q-48 50 -48 169q0 235 259 235q45 0 95 -5q55 -5 99 -15v-723h-90z" />
<glyph unicode="&#xb7;" horiz-adv-x="285" d="M142 193q-77 0 -77 74q0 73 77 73q78 0 78 -73q0 -74 -78 -74z" />
<glyph unicode="&#xb8;" d="M245 -220q-49 0 -99 10l14 69q45 -13 81 -13q32 0 32 27q0 17 -13 23q-11 6 -68 20l23 96h61l-14 -56q92 -25 92 -89q0 -87 -109 -87z" />
<glyph unicode="&#xb9;" horiz-adv-x="414" d="M270 922v-403h-81v336l-67 -64l-37 49l113 104z" />
<glyph unicode="&#xba;" horiz-adv-x="435" d="M389 525q0 -67 -47 -114q-50 -49 -126 -49q-74 0 -123 49q-48 48 -48 117v51q0 68 48 116q48 49 122 49q76 0 126 -49q47 -47 48 -116v-54zM303 569q0 104 -87 104q-86 0 -86 -105v-36q0 -99 87 -99q86 0 86 99v37z" />
<glyph unicode="&#xbb;" horiz-adv-x="555" d="M376 41h-108l121 231l-121 231h108l142 -231zM144 41h-108l121 231l-121 231h108l143 -231z" />
<glyph unicode="&#xbc;" horiz-adv-x="988" d="M402 0h-81l265 733h81zM270 711v-403h-81v336l-67 -64l-37 49l113 104zM891 171h60v-72h-60v-99h-81v99h-169l-34 82l124 238q8 14 31 41q21 24 43 46h97l-73 -85l-18 -25l-59 -112l-57 -113h115v140h81v-140z" />
<glyph unicode="&#xbd;" horiz-adv-x="988" d="M402 0h-81l265 733h81zM270 711v-403h-81v336l-67 -64l-37 49l113 104zM921 72v-72h-269l-19 73l45 43l100 95q25 25 41 43q21 24 21 51q0 11 -4 22q-14 39 -56 40q-26 0 -48 -22q-8 -8 -20 -24q-3 -3 -6 -8l-18 -24l-58 56q13 18 24 31q16 17 31 29q40 30 88 30 q67 0 107 -42q37 -42 37 -99q0 -29 -16 -61q-14 -26 -42 -56q-18 -20 -53 -53l-54 -52h169z" />
<glyph unicode="&#xbe;" horiz-adv-x="988" d="M402 0h-81l265 733h81zM891 171h60v-72h-60v-99h-81v99h-169l-34 82l124 238q8 14 31 41q21 24 43 46h97l-73 -85l-18 -25l-59 -112l-57 -113h115v140h81v-140zM293 495q48 -39 48 -90v-4q0 -65 -41 -104q-43 -39 -106 -39q-40 0 -83 24q-16 9 -36 23l-32 24l49 61 q6 -4 13 -10l12 -10q17 -13 26 -19q29 -21 51 -21q32 1 50 18q15 17 15 53v7q0 59 -66 61h-61v69h63q58 0 58 61v15q-4 59 -60 59q-26 0 -51 -17q-15 -10 -42 -38l-50 61l21 19q15 12 31 19q45 27 91 27q60 0 100 -38q41 -39 41 -99v-6q0 -26 -16 -54q-13 -21 -36 -45 q2 -2 6 -4z" />
<glyph unicode="&#xbf;" horiz-adv-x="454" d="M69 50q19 28 60 59q3 3 8 6q3 3 8 6l16 12q18 13 28 22q28 26 29 53l6 94h102l2 -117v-6q0 -36 -22 -67q-18 -25 -56 -52q-6 -5 -15 -11l-15 -11q-18 -12 -27 -20q-28 -22 -30 -42q-1 -6 -1 -12q0 -53 57 -63q9 -1 18 -1q59 0 123 64l44 -107q-70 -63 -162 -69h-17 q-77 0 -127 42q-56 47 -56 128q0 51 27 92zM270 551q76 0 76 -72t-77 -72t-77 72t78 72z" />
<glyph unicode="&#xc0;" horiz-adv-x="657" d="M269 788l-105 117h134l77 -107v-10h-106zM395 751l125 -373l127 -378h-132l-38 110q-4 10 -9 27l-9 26q-10 31 -17 50h-231l-69 -213h-133l254 751h132zM414 313l-82 271l-3 36l-1 -36l-85 -271h171z" />
<glyph unicode="&#xc1;" horiz-adv-x="657" d="M262 788v10l78 107h134l-106 -117h-106zM395 751l125 -373l127 -378h-132l-38 110q-4 10 -9 27l-9 26q-10 31 -17 50h-231l-69 -213h-133l254 751h132zM414 313l-82 271l-3 36l-1 -36l-85 -271h171z" />
<glyph unicode="&#xc2;" horiz-adv-x="655" d="M400 905l69 -107v-10h-99l-53 80l-52 -80h-96v10l69 107h162zM395 751l125 -373l127 -378h-132l-38 110q-4 10 -9 27l-9 26q-10 31 -17 50h-231l-69 -213h-133l254 751h132zM414 313l-82 271l-3 36l-1 -36l-85 -271h171z" />
<glyph unicode="&#xc3;" horiz-adv-x="655" d="M154 798q8 64 35 90q20 20 56 20q13 0 25 -2q14 -3 30 -11l50 -25q14 -7 23 -7q23 0 29 42h84q-7 -61 -32 -88q-22 -22 -59 -22q-29 0 -55 13l-50 25q-13 7 -23 7q-23 0 -29 -42h-84zM395 751l125 -373l127 -378h-132l-38 110q-4 10 -9 27l-9 26q-10 31 -17 50h-231 l-69 -213h-133l254 751h132zM414 313l-82 271l-3 36l-1 -36l-85 -271h171z" />
<glyph unicode="&#xc4;" horiz-adv-x="655" d="M236 796q-58 0 -58 55q0 54 59 54t59 -54q0 -55 -60 -55zM430 796q-60 0 -60 55q0 54 60 54q58 0 58 -54q0 -55 -58 -55zM395 751l125 -373l127 -378h-132l-38 110q-4 10 -9 27l-9 26q-10 31 -17 50h-231l-69 -213h-133l254 751h132zM414 313l-82 271l-3 36l-1 -36 l-85 -271h171z" />
<glyph unicode="&#xc5;" horiz-adv-x="654" d="M330 793q-120 0 -120 82q0 83 122 83q119 0 119 -82q0 -83 -121 -83zM330 913q-43 0 -43 -38q0 -37 43 -37q44 0 44 37q0 38 -44 38zM395 751l125 -373l127 -378h-132l-38 110q-4 10 -9 27l-9 26q-10 31 -17 50h-231l-69 -213h-133l254 751h132zM414 313l-82 271l-3 36 l-1 -36l-85 -271h171z" />
<glyph unicode="&#xc6;" horiz-adv-x="947" d="M463 0v293l2 22h-220l-103 -315h-133l254 751h632v-116h-306v-159q0 -49 51 -49h218v-111h-233q-36 0 -36 -49v-150h296l14 -117h-436zM346 643l-69 -221h197q-9 25 -11 72v148z" />
<glyph unicode="&#xc7;" horiz-adv-x="601" d="M328 -44q92 -25 92 -89q0 -87 -109 -87q-49 0 -99 10l14 69q45 -13 81 -13q32 0 32 27q0 17 -13 23q-11 6 -68 20l20 82q-100 22 -161 114q-58 88 -58 204v118q0 130 73 223q79 99 202 100h14q124 -3 222 -74l-68 -108q-33 28 -73 45q-45 19 -85 19h-7q-65 0 -108 -62 q-41 -59 -41 -143v-118q0 -93 35 -146q38 -60 114 -60h13q40 0 92 26q19 10 41 23q8 6 18 12l15 10l57 -109l-51 -28q-29 -15 -54 -26q-64 -26 -115 -26h-16z" />
<glyph unicode="&#xc8;" horiz-adv-x="599" d="M285 788l-105 117h134l77 -107v-10h-106zM96 0v751h457v-116h-331v-197h294v-111h-294v-210h321l14 -117h-461z" />
<glyph unicode="&#xc9;" horiz-adv-x="599" d="M229 788v10l78 107h134l-106 -117h-106zM96 0v751h457v-116h-331v-197h294v-111h-294v-210h321l14 -117h-461z" />
<glyph unicode="&#xca;" horiz-adv-x="599" d="M408 905l69 -107v-10h-99l-53 80l-52 -80h-96v10l69 107h162zM96 0v751h457v-116h-331v-197h294v-111h-294v-210h321l14 -117h-461z" />
<glyph unicode="&#xcb;" horiz-adv-x="599" d="M225 796q-58 0 -58 55q0 54 59 54t59 -54q0 -55 -60 -55zM419 796q-60 0 -60 55q0 54 60 54q58 0 58 -54q0 -55 -58 -55zM96 0v751h457v-116h-331v-197h294v-111h-294v-210h321l14 -117h-461z" />
<glyph unicode="&#xcc;" horiz-adv-x="330" d="M126 788l-105 117h134l77 -107v-10h-106zM96 0v733h138v-733h-138z" />
<glyph unicode="&#xcd;" horiz-adv-x="330" d="M97 788v10l78 107h134l-106 -117h-106zM96 0v733h138v-733h-138z" />
<glyph unicode="&#xce;" horiz-adv-x="330" d="M243 906l66 -108v-10h-95l-52 81l-50 -81h-93v10l67 108h157zM96 0v733h138v-733h-138z" />
<glyph unicode="&#xcf;" horiz-adv-x="330" d="M72 786q-56 0 -56 55q0 54 57 54q58 0 58 -54q0 -55 -59 -55zM260 786q-58 0 -58 55q0 54 58 54q57 0 57 -54q0 -55 -57 -55zM96 0v733h138v-733h-138z" />
<glyph unicode="&#xd0;" horiz-adv-x="710" d="M372 751q128 -2 204 -98q73 -91 73 -230v-98q0 -142 -73 -231q-76 -93 -204 -94h-276v336h-80v98h80v317h276zM519 423q0 106 -32 156q-35 56 -117 56h-148v-201h137v-98h-137v-218h145q85 0 121 53q31 48 31 154v98z" />
<glyph unicode="&#xd1;" horiz-adv-x="733" d="M206 797q8 64 35 90q20 20 56 20q13 0 25 -2q14 -3 30 -11l50 -25q14 -7 23 -7q23 0 29 42h84q-7 -61 -32 -88q-22 -22 -59 -22q-29 0 -55 13l-50 25q-13 7 -23 7q-23 0 -29 -42h-84zM222 0h-126v752h133l282 -498l8 -33v531h126v-752h-131l-283 504l-9 35v-539z" />
<glyph unicode="&#xd2;" horiz-adv-x="728" d="M314 788l-105 117h134l77 -107v-10h-106zM366 -9q-128 0 -217 92q-90 93 -90 224v133q0 133 90 224q90 92 220 92t220 -92q90 -91 90 -224v-133q0 -129 -92 -223q-91 -93 -215 -93h-6zM368 638q-73 0 -123 -52q-52 -55 -52 -141v-142q0 -83 50 -138t125 -55q74 0 124 55 q50 56 50 138v148q0 75 -47 129q-51 58 -127 58z" />
<glyph unicode="&#xd3;" horiz-adv-x="728" d="M302 788v10l78 107h134l-106 -117h-106zM366 -9q-128 0 -217 92q-90 93 -90 224v133q0 133 90 224q90 92 220 92t220 -92q90 -91 90 -224v-133q0 -129 -92 -223q-91 -93 -215 -93h-6zM368 638q-73 0 -123 -52q-52 -55 -52 -141v-142q0 -83 50 -138t125 -55q74 0 124 55 q50 56 50 138v148q0 75 -47 129q-51 58 -127 58z" />
<glyph unicode="&#xd4;" horiz-adv-x="726" d="M452 905l69 -107v-10h-99l-53 80l-52 -80h-96v10l69 107h162zM366 -9q-128 0 -217 92q-90 93 -90 224v133q0 133 90 224q90 92 220 92t220 -92q90 -91 90 -224v-133q0 -129 -92 -223q-91 -93 -215 -93h-6zM368 638q-73 0 -123 -52q-52 -55 -52 -141v-142q0 -83 50 -138 t125 -55q74 0 124 55q50 56 50 138v148q0 75 -47 129q-51 58 -127 58z" />
<glyph unicode="&#xd5;" horiz-adv-x="728" d="M203 798q8 64 35 90q20 20 56 20q13 0 25 -2q14 -3 30 -11l50 -25q14 -7 23 -7q23 0 29 42h84q-7 -61 -32 -88q-22 -22 -59 -22q-29 0 -55 13l-50 25q-13 7 -23 7q-23 0 -29 -42h-84zM366 -9q-128 0 -217 92q-90 93 -90 224v133q0 133 90 224q90 92 220 92t220 -92 q90 -91 90 -224v-133q0 -129 -92 -223q-91 -93 -215 -93h-6zM368 638q-73 0 -123 -52q-52 -55 -52 -141v-142q0 -83 50 -138t125 -55q74 0 124 55q50 56 50 138v148q0 75 -47 129q-51 58 -127 58z" />
<glyph unicode="&#xd6;" horiz-adv-x="733" d="M275 796q-58 0 -58 55q0 54 59 54t59 -54q0 -55 -60 -55zM469 796q-60 0 -60 55q0 54 60 54q58 0 58 -54q0 -55 -58 -55zM366 -9q-128 0 -217 92q-90 93 -90 224v133q0 133 90 224q90 92 220 92t220 -92q90 -91 90 -224v-133q0 -129 -92 -223q-91 -93 -215 -93h-6z M368 638q-73 0 -123 -52q-52 -55 -52 -141v-142q0 -83 50 -138t125 -55q74 0 124 55q50 56 50 138v148q0 75 -47 129q-51 58 -127 58z" />
<glyph unicode="&#xd7;" horiz-adv-x="530" d="M407 53l-142 142l-143 -142l-73 73l142 142l-141 141l74 74l141 -141l141 141l73 -74l-141 -141l143 -142z" />
<glyph unicode="&#xd8;" horiz-adv-x="726" d="M578 671q87 -95 87 -259v-77q0 -155 -76 -248q-79 -96 -214 -96h-27q-101 0 -171 56l-65 -101h-49l83 129q-87 96 -87 260v77q0 149 72 243q78 101 217 101h28q99 0 171 -56l65 101h50zM194 343q0 -91 29 -148l255 397q-41 51 -113 51q-97 0 -138 -72q-18 -31 -26 -76 q-7 -40 -7 -93v-59zM530 402q0 94 -28 151l-254 -396q44 -47 116 -47q90 0 131 71q35 59 35 164v57z" />
<glyph unicode="&#xd9;" horiz-adv-x="748" d="M345 788l-105 117h134l77 -107v-10h-106zM671 750v-444q0 -141 -80 -228q-80 -88 -207 -88h-6q-132 0 -209 87q-78 87 -78 232v441h128v-452q0 -193 161 -193q163 0 163 193v452h128z" />
<glyph unicode="&#xda;" horiz-adv-x="724" d="M305 788v10l78 107h134l-106 -117h-106zM671 750v-444q0 -141 -80 -228q-80 -88 -207 -88h-6q-132 0 -209 87q-78 87 -78 232v441h128v-452q0 -193 161 -193q163 0 163 193v452h128z" />
<glyph unicode="&#xdb;" horiz-adv-x="738" d="M467 905l69 -107v-10h-99l-53 80l-52 -80h-96v10l69 107h162zM671 750v-444q0 -141 -80 -228q-80 -88 -207 -88h-6q-132 0 -209 87q-78 87 -78 232v441h128v-452q0 -193 161 -193q163 0 163 193v452h128z" />
<glyph unicode="&#xdc;" horiz-adv-x="724" d="M281 796q-58 0 -58 55q0 54 59 54t59 -54q0 -55 -60 -55zM475 796q-60 0 -60 55q0 54 60 54q58 0 58 -54q0 -55 -58 -55zM671 750v-444q0 -141 -80 -228q-80 -88 -207 -88h-6q-132 0 -209 87q-78 87 -78 232v441h128v-452q0 -193 161 -193q163 0 163 193v452h128z" />
<glyph unicode="&#xdd;" horiz-adv-x="585" d="M217 768v10l78 107h134l-106 -117h-106zM313 472q7 16 17 37l110 242h145q-107 -200 -208 -418q-24 -51 -24 -98v-235h-126v235q0 47 -20 90l-44 91l-43 87q0 1 -1 2q0 2 -1 2l-118 244h141l73 -157l54 -122q9 -21 11 -30q5 -15 10 -51q7 38 11 51q2 7 6 14l3 7q1 4 2 4z " />
<glyph unicode="&#xde;" horiz-adv-x="637" d="M507 188q-68 -55 -185 -55h-89v-133h-137v733h137v-126h99q123 0 185 -53q68 -57 68 -178q0 -126 -78 -188zM409 473q-26 24 -78 24h-98v-252h91q56 0 84 25q34 31 34 105q0 69 -33 98z" />
<glyph unicode="&#xdf;" horiz-adv-x="584" d="M385 -10q-26 0 -53 5q-34 6 -81 21l20 103q50 -19 70 -24q18 -5 36 -5q53 0 53 54q0 22 -27 46q-10 9 -28 21l-15 11q-5 3 -8 6q-5 3 -8 6q-41 28 -60 53q-27 36 -27 78q0 36 20 72q14 25 45 60q2 3 6 7q0 1 3 3q1 2 3 4l11 13q13 15 21 27q20 29 20 54q0 68 -91 68 q-97 0 -97 -92v-581h-121v578q0 100 46 147q53 53 178 53q205 0 205 -160q0 -36 -21 -73q-14 -25 -45 -60l-18 -20q-4 -4 -6 -7q-14 -15 -21 -26q-21 -28 -21 -51q0 -24 27 -49q10 -9 28 -23l32 -24q40 -31 60 -58q27 -38 27 -83q0 -154 -163 -154z" />
<glyph unicode="&#xe0;" horiz-adv-x="574" d="M253 582l-120 151h146l82 -140v-11h-108zM444 481q66 -61 66 -156v-325h-114l-2 41q-52 -47 -137 -47h-21q-76 0 -128 44q-58 49 -58 129q0 84 58 134q52 45 128 45h25q77 0 127 -47v16q0 46 -7 66q-24 56 -93 56q-90 0 -174 -52l-31 118l37 14q22 7 43 12q52 13 114 13 q101 0 167 -61zM306 100q32 0 56 19q27 21 27 54q0 35 -26 55q-24 18 -57 18h-43q-87 0 -87 -73t87 -73h43z" />
<glyph unicode="&#xe1;" horiz-adv-x="573" d="M324 582h-107v11l81 140h147zM444 481q66 -61 66 -156v-325h-114l-2 41q-52 -47 -137 -47h-21q-76 0 -128 44q-58 49 -58 129q0 84 58 134q52 45 128 45h25q77 0 127 -47v16q0 46 -7 66q-24 56 -93 56q-90 0 -174 -52l-31 118l37 14q22 7 43 12q52 13 114 13 q101 0 167 -61zM306 100q32 0 56 19q27 21 27 54q0 35 -26 55q-24 18 -57 18h-43q-87 0 -87 -73t87 -73h43z" />
<glyph unicode="&#xe2;" horiz-adv-x="576" d="M351 582l-61 109l-60 -109h-103v10l79 141h171l79 -141v-10h-105zM444 481q66 -61 66 -156v-325h-114l-2 41q-52 -47 -137 -47h-21q-76 0 -128 44q-58 49 -58 129q0 84 58 134q52 45 128 45h25q77 0 127 -47v16q0 46 -7 66q-24 56 -93 56q-90 0 -174 -52l-31 118l37 14 q22 7 43 12q52 13 114 13q101 0 167 -61zM306 100q32 0 56 19q27 21 27 54q0 35 -26 55q-24 18 -57 18h-43q-87 0 -87 -73t87 -73h43z" />
<glyph unicode="&#xe3;" horiz-adv-x="583" d="M473 715q-8 -78 -35 -111q-23 -28 -64 -28q-36 0 -66 18l-53 33q-14 9 -28 9q-31 0 -35 -54h-90q8 80 37 113q23 26 62 26q38 0 66 -18l53 -33q15 -9 28 -9q31 0 35 54h90zM444 481q66 -61 66 -156v-325h-114l-2 41q-52 -47 -137 -47h-21q-76 0 -128 44q-58 49 -58 129 q0 84 58 134q52 45 128 45h25q77 0 127 -47v16q0 46 -7 66q-24 56 -93 56q-90 0 -174 -52l-31 118l37 14q22 7 43 12q52 13 114 13q101 0 167 -61zM306 100q32 0 56 19q27 21 27 54q0 35 -26 55q-24 18 -57 18h-43q-87 0 -87 -73t87 -73h43z" />
<glyph unicode="&#xe4;" horiz-adv-x="581" d="M197 593q-61 0 -61 62t61 62t61 -62t-61 -62zM395 593q-61 0 -61 62t62 62q60 0 60 -62t-61 -62zM444 481q66 -61 66 -156v-325h-114l-2 41q-52 -47 -137 -47h-21q-76 0 -128 44q-58 49 -58 129q0 84 58 134q52 45 128 45h25q77 0 127 -47v16q0 46 -7 66q-24 56 -93 56 q-90 0 -174 -52l-31 118l37 14q22 7 43 12q52 13 114 13q101 0 167 -61zM306 100q32 0 56 19q27 21 27 54q0 35 -26 55q-24 18 -57 18h-43q-87 0 -87 -73t87 -73h43z" />
<glyph unicode="&#xe5;" horiz-adv-x="580" d="M290 577q-128 0 -128 92q0 93 128 93q127 0 127 -92q0 -93 -127 -93zM289 712q-45 0 -45 -43q0 -42 45 -42q46 0 46 42q0 43 -46 43zM444 481q66 -61 66 -156v-325h-114l-2 41q-52 -47 -137 -47h-21q-76 0 -128 44q-58 49 -58 129q0 84 58 134q52 45 128 45h25 q77 0 127 -47v16q0 46 -7 66q-24 56 -93 56q-90 0 -174 -52l-31 118l37 14q22 7 43 12q52 13 114 13q101 0 167 -61zM306 100q32 0 56 19q27 21 27 54q0 35 -26 55q-24 18 -57 18h-43q-87 0 -87 -73t87 -73h43z" />
<glyph unicode="&#xe6;" horiz-adv-x="880" d="M600 216q-38 0 -62 -11q-30 -13 -30 -37q0 -37 46 -57q30 -15 66 -15q43 0 95 21q45 17 95 59l-4 -126q-25 -23 -74 -40q-46 -16 -80 -16h-70q-73 0 -136 43q-37 0 -67 -6q-18 -4 -50 -15q-31 -11 -51 -15q-33 -7 -72 -7q-67 0 -109 43q-46 48 -46 134v8q0 68 52 113 q54 46 141 46h16q80 0 121 -48v23q0 46 -7 66q-25 56 -88 56q-84 0 -169 -53l-31 118l37 14q21 8 41 13q50 13 111 13q105 0 168 -65q61 64 150 64h32q86 0 144 -50q59 -51 59 -130v-3q0 -140 -176 -140h-52zM381 153q0 38 -28 65q-27 25 -65 25h-31q-76 0 -86 -64 q-2 -10 -2 -18q0 -48 48 -63q14 -4 30 -4h10q14 2 38 9l41 11q17 4 33 4q6 0 12 -1v36zM505 288q23 23 68 23h66q69 0 69 59q0 61 -70 61h-40q-45 0 -70 -30q-23 -27 -23 -68v-45z" />
<glyph unicode="&#xe7;" horiz-adv-x="491" d="M275 -40q92 -25 92 -89q0 -87 -109 -87q-49 0 -99 10l14 69q45 -13 81 -13q32 0 32 27q0 17 -13 23q-11 6 -68 20l20 82q-76 17 -124 78q-50 62 -50 141v94q0 93 67 159q66 66 160 66h8q109 0 181 -49l-35 -109q-36 23 -65 36q-42 17 -78 17h-7q-45 0 -76 -34 q-30 -33 -30 -78v-111q0 -45 30 -78t72 -33h8q22 0 50 11q23 9 49 24q19 11 37 24l15 11l38 -115q-83 -61 -189 -61h-2z" />
<glyph unicode="&#xe8;" horiz-adv-x="562" d="M235 582l-120 151h146l82 -140v-11h-108zM487 51q-1 -1 -3 -2l-25 -15q-20 -12 -41 -19q-27 -10 -59 -16q-37 -6 -81 -6q-97 0 -162 66q-66 68 -66 177v58q0 107 72 177q70 69 179 69q91 0 150 -50q60 -50 60 -130v-3q0 -138 -183 -138h-152v-9q0 -49 36 -83 q34 -32 82 -32q58 0 111 23q47 21 86 59zM315 312q74 0 74 59q0 63 -88 63q-64 0 -97 -39q-28 -32 -28 -83h139z" />
<glyph unicode="&#xe9;" horiz-adv-x="562" d="M326 582h-107v11l81 140h147zM487 51q-1 -1 -3 -2l-25 -15q-20 -12 -41 -19q-27 -10 -59 -16q-37 -6 -81 -6q-97 0 -162 66q-66 68 -66 177v58q0 107 72 177q70 69 179 69q91 0 150 -50q60 -50 60 -130v-3q0 -138 -183 -138h-152v-9q0 -49 36 -83q34 -32 82 -32 q58 0 111 23q47 21 86 59zM315 312q74 0 74 59q0 63 -88 63q-64 0 -97 -39q-28 -32 -28 -83h139z" />
<glyph unicode="&#xea;" horiz-adv-x="561" d="M351 582l-61 109l-60 -109h-103v10l79 141h171l79 -141v-10h-105zM487 51q-1 -1 -3 -2l-25 -15q-20 -12 -41 -19q-27 -10 -59 -16q-37 -6 -81 -6q-97 0 -162 66q-66 68 -66 177v58q0 107 72 177q70 69 179 69q91 0 150 -50q60 -50 60 -130v-3q0 -138 -183 -138h-152v-9 q0 -49 36 -83q34 -32 82 -32q58 0 111 23q47 21 86 59zM315 312q74 0 74 59q0 63 -88 63q-64 0 -97 -39q-28 -32 -28 -83h139z" />
<glyph unicode="&#xeb;" horiz-adv-x="564" d="M187 593q-61 0 -61 62t61 62t61 -62t-61 -62zM385 593q-61 0 -61 62t62 62q60 0 60 -62t-61 -62zM488 51q-1 -1 -3 -2l-25 -15q-20 -12 -41 -19q-27 -10 -59 -16q-37 -6 -81 -6q-97 0 -162 66q-66 68 -66 177v58q0 107 72 177q70 69 179 69q91 0 150 -50q60 -50 60 -130 v-3q0 -138 -183 -138h-152v-9q0 -49 36 -83q34 -32 82 -32q58 0 111 23q47 21 86 59zM316 312q74 0 74 59q0 63 -88 63q-64 0 -97 -39q-28 -32 -28 -83h139z" />
<glyph unicode="&#xec;" horiz-adv-x="294" d="M99 582l-120 151h146l82 -140v-11h-108zM86 0v530l122 17v-547h-122z" />
<glyph unicode="&#xed;" horiz-adv-x="294" d="M192 582h-107v11l81 140h147zM85 0v528l122 17v-545h-122z" />
<glyph unicode="&#xee;" horiz-adv-x="294" d="M199 582l-54 109l-53 -109h-92v10l70 141h153l70 -141v-10h-94zM86 0v530l122 17v-547h-122z" />
<glyph unicode="&#xef;" horiz-adv-x="294" d="M59 593q-56 0 -56 62t56 62q57 0 57 -62t-57 -62zM234 593q-57 0 -57 62t57 62t57 -62t-57 -62zM86 0v530l122 17v-547h-122z" />
<glyph unicode="&#xf0;" horiz-adv-x="573" d="M467 67q-58 -77 -182 -77q-234 0 -234 265q0 138 64 203q58 58 169 58q28 0 60 -8q-23 48 -60 103l-72 -41l-37 53l71 41q-17 24 -50 66l116 48l40 -53l65 37l37 -53l-65 -38q71 -107 103 -200q30 -90 30 -183q0 -148 -55 -221zM378 406q-45 12 -86 12q-58 0 -83 -33 q-28 -38 -28 -129q0 -168 105 -168q61 0 84 44q23 43 23 153q0 64 -15 121z" />
<glyph unicode="&#xf1;" horiz-adv-x="612" d="M511 715q-8 -78 -35 -111q-23 -28 -64 -28q-36 0 -66 18l-53 33q-14 9 -28 9q-31 0 -35 -54h-90q8 80 37 113q23 26 62 26q38 0 66 -18l53 -33q15 -9 28 -9q31 0 35 54h90zM430 0v323q0 56 -34 89q-32 31 -79 31q-45 0 -76 -31q-33 -33 -33 -89v-323h-122v521l122 17v-61 q59 66 152 66q81 0 137 -56q59 -58 59 -149v-338h-126z" />
<glyph unicode="&#xf2;" horiz-adv-x="595" d="M246 582l-120 151h146l82 -140v-11h-108zM543 229q0 -96 -68 -163q-71 -71 -180 -71q-105 0 -176 71q-68 68 -68 166v73q0 98 68 166q70 70 175 70q109 0 180 -70q67 -67 69 -166v-76zM419 291q0 66 -35 107q-34 41 -89 41t-88 -41q-34 -42 -34 -108v-52q0 -141 124 -141 q53 0 88 40q34 40 34 101v53z" />
<glyph unicode="&#xf3;" horiz-adv-x="593" d="M341 582h-107v11l81 140h147zM543 229q0 -96 -68 -163q-71 -71 -180 -71q-105 0 -176 71q-68 68 -68 166v73q0 98 68 166q70 70 175 70q109 0 180 -70q67 -67 69 -166v-76zM419 291q0 66 -35 107q-34 41 -89 41t-88 -41q-34 -42 -34 -108v-52q0 -141 124 -141q53 0 88 40 q34 40 34 101v53z" />
<glyph unicode="&#xf4;" horiz-adv-x="595" d="M356 582l-61 109l-60 -109h-103v10l79 141h171l79 -141v-10h-105zM543 229q0 -96 -68 -163q-71 -71 -180 -71q-105 0 -176 71q-68 68 -68 166v73q0 98 68 166q70 70 175 70q109 0 180 -70q67 -67 69 -166v-76zM419 291q0 66 -35 107q-34 41 -89 41t-88 -41 q-34 -42 -34 -108v-52q0 -141 124 -141q53 0 88 40q34 40 34 101v53z" />
<glyph unicode="&#xf5;" horiz-adv-x="593" d="M484 715q-8 -78 -35 -111q-23 -28 -64 -28q-36 0 -66 18l-53 33q-14 9 -28 9q-31 0 -35 -54h-90q8 80 37 113q23 26 62 26q38 0 66 -18l53 -33q15 -9 28 -9q31 0 35 54h90zM543 229q0 -96 -68 -163q-71 -71 -180 -71q-105 0 -176 71q-68 68 -68 166v73q0 98 68 166 q70 70 175 70q109 0 180 -70q67 -67 69 -166v-76zM419 291q0 66 -35 107q-34 41 -89 41t-88 -41q-34 -42 -34 -108v-52q0 -141 124 -141q53 0 88 40q34 40 34 101v53z" />
<glyph unicode="&#xf6;" horiz-adv-x="593" d="M199 593q-61 0 -61 62t61 62t61 -62t-61 -62zM397 593q-61 0 -61 62t62 62q60 0 60 -62t-61 -62zM543 229q0 -96 -68 -163q-71 -71 -180 -71q-105 0 -176 71q-68 68 -68 166v73q0 98 68 166q70 70 175 70q109 0 180 -70q67 -67 69 -166v-76zM419 291q0 66 -35 107 q-34 41 -89 41t-88 -41q-34 -42 -34 -108v-52q0 -141 124 -141q53 0 88 40q34 40 34 101v53z" />
<glyph unicode="&#xf7;" horiz-adv-x="593" d="M547 244h-498v47h498v-47zM296 7q-77 0 -77 74q0 73 78 73t78 -73q0 -74 -79 -74zM296 378q-77 0 -77 75q0 73 78 73t78 -73q0 -75 -79 -75z" />
<glyph unicode="&#xf8;" horiz-adv-x="579" d="M445 486q81 -68 81 -173v-97q0 -95 -67 -161q-66 -65 -159 -65h-23q-62 0 -115 31l-58 -97h-44l72 118q-81 69 -81 175v96q0 95 67 161q66 65 158 65h24q59 0 114 -31l59 96h44zM173 223q0 -43 20 -80l165 273q-25 21 -58 21h-24q-43 0 -72 -36q-31 -40 -31 -103v-75z M404 298q0 51 -21 87l-164 -272q26 -21 58 -21h23q43 0 73 34q31 37 31 97v75z" />
<glyph unicode="&#xf9;" horiz-adv-x="621" d="M259 582l-120 151h146l82 -140v-11h-108zM210 538v-323q0 -56 34 -89q32 -31 79 -31q45 0 76 31q33 33 33 89v323h122v-538h-116l-6 61q-59 -66 -152 -66q-81 0 -137 56q-59 58 -59 149v338h126z" />
<glyph unicode="&#xfa;" horiz-adv-x="624" d="M356 582h-107v11l81 140h147zM210 538v-323q0 -56 34 -89q32 -31 79 -31q45 0 76 31q33 33 33 89v323h122v-538h-116l-6 61q-59 -66 -152 -66q-81 0 -137 56q-59 58 -59 149v338h126z" />
<glyph unicode="&#xfb;" horiz-adv-x="624" d="M380 582l-61 109l-60 -109h-103v10l79 141h171l79 -141v-10h-105zM210 538v-323q0 -56 34 -89q32 -31 79 -31q45 0 76 31q33 33 33 89v323h122v-538h-116l-6 61q-59 -66 -152 -66q-81 0 -137 56q-59 58 -59 149v338h126z" />
<glyph unicode="&#xfc;" horiz-adv-x="623" d="M222 593q-61 0 -61 62t61 62t61 -62t-61 -62zM420 593q-61 0 -61 62t62 62q60 0 60 -62t-61 -62zM210 538v-323q0 -56 34 -89q32 -31 79 -31q45 0 76 31q33 33 33 89v323h122v-538h-116l-6 61q-59 -66 -152 -66q-81 0 -137 56q-59 58 -59 149v338h126z" />
<glyph unicode="&#xfd;" horiz-adv-x="524" d="M318 582h-107v11l81 140h147zM62 -180l11 111q27 -20 60 -20q8 0 16 1l5 1q3 0 5 1q6 0 10 2q9 3 17 9q16 15 27 61l-197 553h132l120 -387l29 101l58 220q14 49 20 66h131l-200 -619q-40 -118 -148 -118q-8 0 -16 1q-41 2 -80 17z" />
<glyph unicode="&#xfe;" horiz-adv-x="589" d="M480 472q61 -66 61 -170v-87q0 -90 -33 -146q-41 -70 -129 -78q-7 -1 -14 -1q-15 0 -29 3q-14 4 -33 11l-14 7l-14 5q-13 4 -25 4h-5q-39 -3 -39 -46v-157l-121 -36v981l121 15v-297q18 24 45 39q34 18 77 18q92 0 152 -65zM420 323q0 107 -101 109h-2q-110 0 -110 -111 v-222q0 2 19 10q18 8 36 8h7q11 -1 25 -5l24 -9q23 -9 38 -9q4 0 8 1q33 5 46 34q10 21 10 60v134z" />
<glyph unicode="&#xff;" horiz-adv-x="524" d="M168 593q-61 0 -61 62t61 62t61 -62t-61 -62zM366 593q-61 0 -61 62t62 62q60 0 60 -62t-61 -62zM65 -180l11 111q27 -20 60 -20q8 0 16 1l5 1q3 0 5 1q6 0 10 2q9 3 17 9q16 15 27 61l-197 553h132l120 -387l29 101l58 220q14 49 20 66h131l-200 -619 q-40 -118 -148 -118q-8 0 -16 1q-41 2 -80 17z" />
<glyph unicode="&#x152;" horiz-adv-x="1007" d="M973 -1h-438v40q-69 -47 -160 -47h-27q-138 0 -216 101q-73 94 -73 243v77q0 149 72 243q78 101 217 101h28q90 0 159 -47v40h434v-116h-308v-148q0 -49 51 -49h220v-111h-235q-27 0 -33 -25l-3 -28v-157h298zM533 403q0 107 -39 170q-43 71 -128 71q-97 0 -139 -72 q-18 -31 -26 -76q-7 -41 -7 -93v-59q0 -102 37 -162q44 -71 134 -71t132 71q36 60 36 164v57z" />
<glyph unicode="&#x153;" horiz-adv-x="890" d="M622 214q-38 0 -62 -10q-30 -13 -30 -37q0 -35 45 -58q31 -15 68 -15q43 0 94 21t95 59l-4 -126q-65 -56 -155 -56h-69q-91 0 -147 64q-69 -64 -158 -64h-23q-93 0 -159 66q-67 66 -67 162v92q0 95 67 161q66 65 158 65h24q97 0 162 -68q62 68 154 68h32q86 0 144 -50 q59 -51 59 -131v-3q0 -140 -176 -140h-52zM403 297q0 65 -32 104q-29 36 -72 36h-24q-42 0 -72 -37q-31 -39 -31 -103v-71q0 -58 31 -96q30 -36 73 -36h23q43 0 73 35q31 37 31 97v71zM527 286q22 24 68 24h66q69 0 69 58q0 62 -71 62h-39q-44 0 -70 -31q-23 -27 -23 -67 v-46z" />
<glyph unicode="&#x178;" horiz-adv-x="585" d="M192 796q-58 0 -58 55q0 54 59 54t59 -54q0 -55 -60 -55zM386 796q-60 0 -60 55q0 54 60 54q58 0 58 -54q0 -55 -58 -55zM313 472q7 16 17 37l110 242h145q-107 -200 -208 -418q-24 -51 -24 -98v-235h-126v235q0 47 -20 90l-44 91l-43 87q0 1 -1 2q0 2 -1 2l-118 244h141 l73 -157l54 -122q9 -21 11 -30q5 -15 10 -51q7 38 11 51q2 7 6 14l3 7q1 4 2 4z" />
<glyph unicode="&#x2c6;" d="M309 602l-61 109l-60 -109h-103v10l79 141h171l79 -141v-10h-105z" />
<glyph unicode="&#x2dc;" d="M435 735q-8 -78 -35 -111q-23 -28 -64 -28q-36 0 -66 18l-53 33q-14 9 -28 9q-31 0 -35 -54h-90q8 80 37 113q23 26 62 26q38 0 66 -18l53 -33q15 -9 28 -9q31 0 35 54h90z" />
<glyph unicode="&#x2000;" horiz-adv-x="479" />
<glyph unicode="&#x2001;" horiz-adv-x="958" />
<glyph unicode="&#x2002;" horiz-adv-x="479" />
<glyph unicode="&#x2003;" horiz-adv-x="958" />
<glyph unicode="&#x2004;" horiz-adv-x="319" />
<glyph unicode="&#x2005;" horiz-adv-x="239" />
<glyph unicode="&#x2006;" horiz-adv-x="159" />
<glyph unicode="&#x2007;" horiz-adv-x="159" />
<glyph unicode="&#x2008;" horiz-adv-x="119" />
<glyph unicode="&#x2009;" horiz-adv-x="191" />
<glyph unicode="&#x200a;" horiz-adv-x="53" />
<glyph unicode="&#x2010;" horiz-adv-x="250" d="M23 215v101h204v-101h-204z" />
<glyph unicode="&#x2011;" horiz-adv-x="250" d="M23 215v101h204v-101h-204z" />
<glyph unicode="&#x2013;" d="M32 215v101h436v-101h-436z" />
<glyph unicode="&#x2014;" horiz-adv-x="1000" d="M32 215v101h936v-101h-936z" />
<glyph unicode="&#x2018;" horiz-adv-x="244" d="M158 782l57 -74q-53 -26 -67 -42q-11 -12 -11 -39v-8h12q49 0 49 -51q0 -68 -81 -68q-88 0 -88 102q0 111 129 180z" />
<glyph unicode="&#x2019;" horiz-adv-x="244" d="M86 498l-57 74q53 26 67 42q11 12 11 39v8h-12q-49 0 -49 51q0 68 81 68q88 0 88 -102q0 -111 -129 -180z" />
<glyph unicode="&#x201a;" horiz-adv-x="244" d="M86 -143l-57 74q53 26 67 42q11 12 11 39v8h-12q-49 0 -49 51q0 68 81 68q88 0 88 -102q0 -111 -129 -180z" />
<glyph unicode="&#x201c;" horiz-adv-x="445" d="M359 780l57 -74q-53 -26 -67 -42q-11 -12 -11 -39v-8h12q49 0 49 -51q0 -68 -81 -68q-88 0 -88 102q0 111 129 180zM158 780l57 -74q-53 -26 -67 -42q-11 -12 -11 -39v-8h12q49 0 49 -51q0 -68 -81 -68q-88 0 -88 102q0 111 129 180z" />
<glyph unicode="&#x201d;" horiz-adv-x="446" d="M288 498l-57 74q53 26 67 42q11 12 11 39v8h-12q-49 0 -49 51q0 68 81 68q88 0 88 -102q0 -111 -129 -180zM86 498l-57 74q53 26 67 42q11 12 11 39v8h-12q-49 0 -49 51q0 68 81 68q88 0 88 -102q0 -111 -129 -180z" />
<glyph unicode="&#x201e;" horiz-adv-x="446" d="M86 -143l-57 74q53 26 67 42q11 12 11 39v8h-12q-49 0 -49 51q0 68 81 68q88 0 88 -102q0 -111 -129 -180zM288 -143l-57 74q53 26 67 42q11 12 11 39v8h-12q-49 0 -49 51q0 68 81 68q88 0 88 -102q0 -111 -129 -180z" />
<glyph unicode="&#x2022;" d="M118 133v263h264v-263h-264z" />
<glyph unicode="&#x2026;" horiz-adv-x="749" d="M374 -8q-77 0 -77 74q0 73 77 73q78 0 78 -73q0 -74 -78 -74zM606 -8q-77 0 -77 74q0 73 77 73q78 0 78 -73q0 -74 -78 -74zM142 -8q-77 0 -77 74q0 73 77 73q78 0 78 -73q0 -74 -78 -74z" />
<glyph unicode="&#x202f;" horiz-adv-x="191" />
<glyph unicode="&#x2039;" horiz-adv-x="325" d="M180 41l-143 231l143 231h108l-121 -231l121 -231h-108z" />
<glyph unicode="&#x203a;" horiz-adv-x="325" d="M145 41h-108l121 231l-121 231h108l143 -231z" />
<glyph unicode="&#x205f;" horiz-adv-x="239" />
<glyph unicode="&#x20ac;" horiz-adv-x="597" d="M565 35q-41 -21 -77 -32q-42 -13 -80 -13h-19q-111 0 -187 83q-72 77 -85 195h-57v60h54v88h-54v60h57q13 117 84 195q76 83 188 84h14q79 -3 152 -35l-41 -117q-63 34 -115 34h-7q-55 0 -96 -47q-38 -45 -49 -114h254l-16 -60h-241v-88h257l-16 -60h-239q8 -74 43 -115 q38 -45 103 -45h13q28 0 62 13q28 10 58 28z" />
<glyph unicode="&#x2122;" horiz-adv-x="831" d="M232 731h81v-65h-87q-7 0 -11 -2q-2 -1 -3 -3l-1 -6v-301h-74v306l-3 3q-3 3 -14 3h-79l-1 65h82l23 -2q17 -2 30 -9q23 11 57 11zM769 731v-377h-75v277l-3 -28l-78 -228h-64l-77 226l-3 29v-276h-74v377h101l85 -264l86 264h102z" />
</font>
</defs>
</svg>
